<?xml version="1.0" encoding="UTF-8"?><svg id="Layer_2" xmlns="http://www.w3.org/2000/svg" viewBox="0 0 293.45996 293.45996"><defs><style>.cls-1{fill:#fff;}</style></defs><path class="cls-1" d="M275.40015,76.15997C250.45996,30.76996,202.18994,0,146.72998,0,91.30005,0,43.05005,30.73999,18.09009,76.09998,6.56006,97.04999,0,121.13,0,146.72998c0,25.58997,6.55005,49.65997,18.07007,70.59998,24.95996,45.38,73.21997,76.13,128.65991,76.13,55.45996,0,103.72998-30.76001,128.67017-76.15997,11.51001-20.94,18.05981-44.98999,18.05981-70.57001s-6.5498-49.63-18.05981-70.57001ZM78.95996,133.90997c5.53003-17.56,19.7002-33.63,36.93018-40.20001l-.01001-.96997c-14.75-17.04004-12.44019-42.48999,4.94995-56.76001,31.63989-25.95996,76.94995,7.72998,61.18994,46.09998-1.70996,4.16003-4.58008,7.56-6.40991,11.63,16.16992,7.23999,29.36987,22.58002,35.28003,39.23004,3.22998,9.10999,6.85986,21.28998-6.7002,22.5h-118.18994c-12.61987-1.67004-9.83984-12.62006-7.04004-21.53003ZM225.15015,244.65997l-156.21021.03998c-12.20996.55005-15.48975-15.25995-4.41992-19.56995l163.28003-.16003c11.90991,2.59003,9.76001,19.89001-2.6499,19.69ZM227.80005,204.64996H65.66016c-10.15015-1.21997-11.06006-17.78998.84985-19.52997l159.30005-.17004c13.41992,1.35004,12.22998,18.47003,1.98999,19.70001Z"/><path class="cls-1" d="M147.03003,86.51996c-25.84985.44-26.59985-39.5-.52002-39.79999,25.95996-.29999,26.31006,39.35999.52002,39.79999Z"/><path class="cls-1" d="M192.02002,135.71997h-90.56982c16.53979-39.15002,74.21973-39.47998,90.56982,0Z"/></svg>