<?xml version="1.0" encoding="UTF-8"?><svg id="Camada_1" xmlns="http://www.w3.org/2000/svg" viewBox="0 0 40 40"><defs><style>.cls-1{fill:#fff;}</style></defs><path class="cls-1" d="M20.33002,7.51001v5.75c0,.57996.46997,1.04999,1.04999,1.04999h5.75l-6.79999-6.79999ZM20.33002,7.51001v5.75c0,.57996.46997,1.04999,1.04999,1.04999h5.75l-6.79999-6.79999ZM20.33002,7.51001v5.75c0,.57996.46997,1.04999,1.04999,1.04999h5.75l-6.79999-6.79999ZM20.33002,7.51001v5.75c0,.57996.46997,1.04999,1.04999,1.04999h5.75l-6.79999-6.79999ZM20.33002,7.51001v5.75c0,.57996.46997,1.04999,1.04999,1.04999h5.75l-6.79999-6.79999ZM21.38,16.60999c-1.85999,0-3.35999-1.5-3.35999-3.34998v-5.75h-5.52002c-.58002,0-1.04999.46997-1.04999,1.04999v18.77997c0,.58002.46997,1.05005,1.04999,1.05005h6.22998c-.13995-.60004-.20996-1.22003-.20996-1.86005,0-.63.07001-1.22998.19995-1.82001h-5.08997c-.31,0-.57001-.25995-.57001-.57996,0-.16003.06-.30005.16998-.40002.10004-.10999.25-.16998.40002-.16998h5.44c.27997-.72003.64996-1.40002,1.12-2.01001h-6.56c-.31,0-.57001-.26001-.57001-.58002s.26001-.57996.57001-.57996h7.63c1.45996-1.33002,3.39996-2.13,5.52997-2.13h.34003v-1.65002h-5.75ZM20.27002,17.88c0,.26996-.22003.5-.5.5h-6.21002c-.27997,0-.5-.23004-.5-.5v-.15002c0-.27997.22003-.5.5-.5h6.21002c.27997,0,.5.22003.5.5v.15002ZM20.33002,7.51001v5.75c0,.57996.46997,1.04999,1.04999,1.04999h5.75l-6.79999-6.79999ZM20.33002,7.51001v5.75c0,.57996.46997,1.04999,1.04999,1.04999h5.75l-6.79999-6.79999ZM26.38,31.17999l-.02002-.01001c.02002.02002.04004.03003.04999.04999l-.02997-.03998ZM26.38,31.17999l-.02002-.01001c.02002.02002.04004.03003.04999.04999l-.02997-.03998ZM26.38,31.17999l-.02002-.01001c.02002.02002.04004.03003.04999.04999l-.02997-.03998ZM26.38,31.17999l-.02002-.01001c.02002.02002.04004.03003.04999.04999l-.02997-.03998ZM26.38,31.17999l-.02002-.01001c.02002.02002.04004.03003.04999.04999l-.02997-.03998ZM26.38,31.17999l-.02002-.01001c.02002.02002.04004.03003.04999.04999l-.02997-.03998ZM26.38,31.17999l-.02002-.01001c.02002.02002.04004.03003.04999.04999l-.02997-.03998ZM26.38,31.17999l-.02002-.01001c.02002.02002.04004.03003.04999.04999l-.02997-.03998ZM29.44,21.17999c-.71002-.35004-1.48999-.56-2.31-.60999-.10999,0-.22003-.01001-.34003-.01001-2.20996,0-4.13995,1.20996-5.16998,3-.21002.35999-.38.75-.51001,1.14996-.17999.57001-.27997,1.19-.27997,1.82001,0,.65002.09998,1.28003.28998,1.86005.28998.87994.78003,1.65997,1.41003,2.31,1.07996,1.10999,2.58997,1.78998,4.25995,1.78998,3.29004,0,5.97003-2.66998,5.97003-5.96002,0-2.33997-1.35999-4.37-3.32001-5.34998ZM27.19,31.21997c-.02002.02002-.03998.04004-.07001.04999.02002-.00995.03003-.02997.04999-.04999-.02997.03003-.06.04999-.08997.07001-.02002.01001-.04004.03003-.06.03003-.03003.01996-.07001.02997-.11005.03998-.02997.01001-.06995.01001-.10999.01001h-.01001c-.03998,0-.07996,0-.12-.01001-.02997,0-.04999-.01001-.07996-.02002-.03003-.01001-.06-.02997-.09003-.04999-.01001-.01001-.02002-.01001-.02002-.02002-.01996-.00995-.02997-.00995-.03998-.01996-.02002-.01001-.03998-.01001-.04999-.03003l-3.85999-3.85999c-.21002-.21002-.21002-.56,0-.77002l.03998-.03998c.21997-.22003.57001-.22003.77997,0l2.87,2.87v-7.16998c0-.32001.25-.57001.57001-.57001h.01001c.31,0,.57001.25.57001.57001v7.16998l2.85999-2.87c.22003-.22003.57001-.22003.78003,0l.03998.03998c.21002.21002.21002.56,0,.77002l-3.85999,3.85999ZM26.35999,31.16998c.02002.02002.04004.03003.04999.04999l-.02997-.03998-.02002-.01001ZM26.38,31.17999l-.02002-.01001c.02002.02002.04004.03003.04999.04999l-.02997-.03998ZM26.38,31.17999l-.02002-.01001c.02002.02002.04004.03003.04999.04999l-.02997-.03998ZM26.38,31.17999l-.02002-.01001c.02002.02002.04004.03003.04999.04999l-.02997-.03998ZM26.38,31.17999l-.02002-.01001c.02002.02002.04004.03003.04999.04999l-.02997-.03998ZM21.38,16.60999c-1.85999,0-3.35999-1.5-3.35999-3.34998v-5.75h-5.52002c-.58002,0-1.04999.46997-1.04999,1.04999v18.77997c0,.58002.46997,1.05005,1.04999,1.05005h6.22998c-.13995-.60004-.20996-1.22003-.20996-1.86005,0-.63.07001-1.22998.19995-1.82001h-5.08997c-.31,0-.57001-.25995-.57001-.57996,0-.16003.06-.30005.16998-.40002.10004-.10999.25-.16998.40002-.16998h5.44c.27997-.72003.64996-1.40002,1.12-2.01001h-6.56c-.31,0-.57001-.26001-.57001-.58002s.26001-.57996.57001-.57996h7.63c1.45996-1.33002,3.39996-2.13,5.52997-2.13h.34003v-1.65002h-5.75ZM20.27002,17.88c0,.26996-.22003.5-.5.5h-6.21002c-.27997,0-.5-.23004-.5-.5v-.15002c0-.27997.22003-.5.5-.5h6.21002c.27997,0,.5.22003.5.5v.15002ZM26.38,31.17999l-.02002-.01001c.02002.02002.04004.03003.04999.04999l-.02997-.03998ZM26.38,31.17999l-.02002-.01001c.02002.02002.04004.03003.04999.04999l-.02997-.03998ZM26.38,31.17999l-.02002-.01001c.02002.02002.04004.03003.04999.04999l-.02997-.03998ZM26.38,31.17999l-.02002-.01001c.02002.02002.04004.03003.04999.04999l-.02997-.03998ZM26.38,31.17999l-.02002-.01001c.02002.02002.04004.03003.04999.04999l-.02997-.03998ZM26.38,31.17999l-.02002-.01001c.02002.02002.04004.03003.04999.04999l-.02997-.03998ZM26.38,31.17999l-.02002-.01001c.02002.02002.04004.03003.04999.04999l-.02997-.03998ZM26.38,31.17999l-.02002-.01001c.02002.02002.04004.03003.04999.04999l-.02997-.03998ZM26.38,31.17999l-.02002-.01001c.02002.02002.04004.03003.04999.04999l-.02997-.03998ZM26.38,31.17999l-.02002-.01001c.02002.02002.04004.03003.04999.04999l-.02997-.03998ZM26.38,31.17999l-.02002-.01001c.02002.02002.04004.03003.04999.04999l-.02997-.03998ZM26.38,31.17999l-.02002-.01001c.02002.02002.04004.03003.04999.04999l-.02997-.03998ZM29.44,21.17999c-.71002-.35004-1.48999-.56-2.31-.60999-.10999,0-.22003-.01001-.34003-.01001-2.20996,0-4.13995,1.20996-5.16998,3-.21002.35999-.38.75-.51001,1.14996-.17999.57001-.27997,1.19-.27997,1.82001,0,.65002.09998,1.28003.28998,1.86005.28998.87994.78003,1.65997,1.41003,2.31,1.07996,1.10999,2.58997,1.78998,4.25995,1.78998,3.29004,0,5.97003-2.66998,5.97003-5.96002,0-2.33997-1.35999-4.37-3.32001-5.34998ZM27.19,31.21997c-.02002.02002-.03998.04004-.07001.04999.02002-.00995.03003-.02997.04999-.04999-.02997.03003-.06.04999-.08997.07001-.02002.01001-.04004.03003-.06.03003-.03003.01996-.07001.02997-.11005.03998-.02997.01001-.06995.01001-.10999.01001h-.01001c-.03998,0-.07996,0-.12-.01001-.02997,0-.04999-.01001-.07996-.02002-.03003-.01001-.06-.02997-.09003-.04999-.01001-.01001-.02002-.01001-.02002-.02002-.01996-.00995-.02997-.00995-.03998-.01996-.02002-.01001-.03998-.01001-.04999-.03003l-3.85999-3.85999c-.21002-.21002-.21002-.56,0-.77002l.03998-.03998c.21997-.22003.57001-.22003.77997,0l2.87,2.87v-7.16998c0-.32001.25-.57001.57001-.57001h.01001c.31,0,.57001.25.57001.57001v7.16998l2.85999-2.87c.22003-.22003.57001-.22003.78003,0l.03998.03998c.21002.21002.21002.56,0,.77002l-3.85999,3.85999ZM26.35999,31.16998c.02002.02002.04004.03003.04999.04999l-.02997-.03998-.02002-.01001ZM26.38,31.17999l-.02002-.01001c.02002.02002.04004.03003.04999.04999l-.02997-.03998ZM26.38,31.17999l-.02002-.01001c.02002.02002.04004.03003.04999.04999l-.02997-.03998ZM26.38,31.17999l-.02002-.01001c.02002.02002.04004.03003.04999.04999l-.02997-.03998ZM26.38,31.17999l-.02002-.01001c.02002.02002.04004.03003.04999.04999l-.02997-.03998ZM21.38,16.60999c-1.85999,0-3.35999-1.5-3.35999-3.34998v-5.75h-5.52002c-.58002,0-1.04999.46997-1.04999,1.04999v18.77997c0,.58002.46997,1.05005,1.04999,1.05005h6.22998c-.13995-.60004-.20996-1.22003-.20996-1.86005,0-.63.07001-1.22998.19995-1.82001h-5.08997c-.31,0-.57001-.25995-.57001-.57996,0-.16003.06-.30005.16998-.40002.10004-.10999.25-.16998.40002-.16998h5.44c.27997-.72003.64996-1.40002,1.12-2.01001h-6.56c-.31,0-.57001-.26001-.57001-.58002s.26001-.57996.57001-.57996h7.63c1.45996-1.33002,3.39996-2.13,5.52997-2.13h.34003v-1.65002h-5.75ZM20.27002,17.88c0,.26996-.22003.5-.5.5h-6.21002c-.27997,0-.5-.23004-.5-.5v-.15002c0-.27997.22003-.5.5-.5h6.21002c.27997,0,.5.22003.5.5v.15002ZM26.38,31.17999l-.02002-.01001c.02002.02002.04004.03003.04999.04999l-.02997-.03998ZM26.38,31.17999l-.02002-.01001c.02002.02002.04004.03003.04999.04999l-.02997-.03998ZM26.38,31.17999l-.02002-.01001c.02002.02002.04004.03003.04999.04999l-.02997-.03998ZM26.38,31.17999l-.02002-.01001c.02002.02002.04004.03003.04999.04999l-.02997-.03998ZM20.33002,7.51001v5.75c0,.57996.46997,1.04999,1.04999,1.04999h5.75l-6.79999-6.79999ZM20.33002,7.51001v5.75c0,.57996.46997,1.04999,1.04999,1.04999h5.75l-6.79999-6.79999ZM26.38,31.17999l-.02002-.01001c.02002.02002.04004.03003.04999.04999l-.02997-.03998ZM26.38,31.17999l-.02002-.01001c.02002.02002.04004.03003.04999.04999l-.02997-.03998ZM26.38,31.17999l-.02002-.01001c.02002.02002.04004.03003.04999.04999l-.02997-.03998ZM26.38,31.17999l-.02002-.01001c.02002.02002.04004.03003.04999.04999l-.02997-.03998ZM26.38,31.17999l-.02002-.01001c.02002.02002.04004.03003.04999.04999l-.02997-.03998ZM26.38,31.17999l-.02002-.01001c.02002.02002.04004.03003.04999.04999l-.02997-.03998ZM26.38,31.17999l-.02002-.01001c.02002.02002.04004.03003.04999.04999l-.02997-.03998ZM26.38,31.17999l-.02002-.01001c.02002.02002.04004.03003.04999.04999l-.02997-.03998ZM29.44,21.17999c-.71002-.35004-1.48999-.56-2.31-.60999-.10999,0-.22003-.01001-.34003-.01001-2.20996,0-4.13995,1.20996-5.16998,3-.21002.35999-.38.75-.51001,1.14996-.17999.57001-.27997,1.19-.27997,1.82001,0,.65002.09998,1.28003.28998,1.86005.28998.87994.78003,1.65997,1.41003,2.31,1.07996,1.10999,2.58997,1.78998,4.25995,1.78998,3.29004,0,5.97003-2.66998,5.97003-5.96002,0-2.33997-1.35999-4.37-3.32001-5.34998ZM27.19,31.21997c-.02002.02002-.03998.04004-.07001.04999.02002-.00995.03003-.02997.04999-.04999-.02997.03003-.06.04999-.08997.07001-.02002.01001-.04004.03003-.06.03003-.03003.01996-.07001.02997-.11005.03998-.02997.01001-.06995.01001-.10999.01001h-.01001c-.03998,0-.07996,0-.12-.01001-.02997,0-.04999-.01001-.07996-.02002-.03003-.01001-.06-.02997-.09003-.04999-.01001-.01001-.02002-.01001-.02002-.02002-.01996-.00995-.02997-.00995-.03998-.01996-.02002-.01001-.03998-.01001-.04999-.03003l-3.85999-3.85999c-.21002-.21002-.21002-.56,0-.77002l.03998-.03998c.21997-.22003.57001-.22003.77997,0l2.87,2.87v-7.16998c0-.32001.25-.57001.57001-.57001h.01001c.31,0,.57001.25.57001.57001v7.16998l2.85999-2.87c.22003-.22003.57001-.22003.78003,0l.03998.03998c.21002.21002.21002.56,0,.77002l-3.85999,3.85999ZM26.35999,31.16998c.02002.02002.04004.03003.04999.04999l-.02997-.03998-.02002-.01001ZM26.38,31.17999l-.02002-.01001c.02002.02002.04004.03003.04999.04999l-.02997-.03998ZM26.38,31.17999l-.02002-.01001c.02002.02002.04004.03003.04999.04999l-.02997-.03998ZM26.38,31.17999l-.02002-.01001c.02002.02002.04004.03003.04999.04999l-.02997-.03998ZM26.38,31.17999l-.02002-.01001c.02002.02002.04004.03003.04999.04999l-.02997-.03998ZM21.38,16.60999c-1.85999,0-3.35999-1.5-3.35999-3.34998v-5.75h-5.52002c-.58002,0-1.04999.46997-1.04999,1.04999v18.77997c0,.58002.46997,1.05005,1.04999,1.05005h6.22998c-.13995-.60004-.20996-1.22003-.20996-1.86005,0-.63.07001-1.22998.19995-1.82001h-5.08997c-.31,0-.57001-.25995-.57001-.57996,0-.16003.06-.30005.16998-.40002.10004-.10999.25-.16998.40002-.16998h5.44c.27997-.72003.64996-1.40002,1.12-2.01001h-6.56c-.31,0-.57001-.26001-.57001-.58002s.26001-.57996.57001-.57996h7.63c1.45996-1.33002,3.39996-2.13,5.52997-2.13h.34003v-1.65002h-5.75ZM20.27002,17.88c0,.26996-.22003.5-.5.5h-6.21002c-.27997,0-.5-.23004-.5-.5v-.15002c0-.27997.22003-.5.5-.5h6.21002c.27997,0,.5.22003.5.5v.15002ZM26.38,31.17999l-.02002-.01001c.02002.02002.04004.03003.04999.04999l-.02997-.03998ZM26.38,31.17999l-.02002-.01001c.02002.02002.04004.03003.04999.04999l-.02997-.03998ZM26.38,31.17999l-.02002-.01001c.02002.02002.04004.03003.04999.04999l-.02997-.03998ZM26.38,31.17999l-.02002-.01001c.02002.02002.04004.03003.04999.04999l-.02997-.03998ZM26.38,31.17999l-.02002-.01001c.02002.02002.04004.03003.04999.04999l-.02997-.03998ZM26.38,31.17999l-.02002-.01001c.02002.02002.04004.03003.04999.04999l-.02997-.03998ZM26.38,31.17999l-.02002-.01001c.02002.02002.04004.03003.04999.04999l-.02997-.03998ZM26.38,31.17999l-.02002-.01001c.02002.02002.04004.03003.04999.04999l-.02997-.03998ZM26.38,31.17999l-.02002-.01001c.02002.02002.04004.03003.04999.04999l-.02997-.03998ZM26.38,31.17999l-.02002-.01001c.02002.02002.04004.03003.04999.04999l-.02997-.03998ZM26.38,31.17999l-.02002-.01001c.02002.02002.04004.03003.04999.04999l-.02997-.03998ZM26.38,31.17999l-.02002-.01001c.02002.02002.04004.03003.04999.04999l-.02997-.03998ZM29.44,21.17999c-.71002-.35004-1.48999-.56-2.31-.60999-.10999,0-.22003-.01001-.34003-.01001-2.20996,0-4.13995,1.20996-5.16998,3-.21002.35999-.38.75-.51001,1.14996-.17999.57001-.27997,1.19-.27997,1.82001,0,.65002.09998,1.28003.28998,1.86005.28998.87994.78003,1.65997,1.41003,2.31,1.07996,1.10999,2.58997,1.78998,4.25995,1.78998,3.29004,0,5.97003-2.66998,5.97003-5.96002,0-2.33997-1.35999-4.37-3.32001-5.34998ZM27.19,31.21997c-.02002.02002-.03998.04004-.07001.04999.02002-.00995.03003-.02997.04999-.04999-.02997.03003-.06.04999-.08997.07001-.02002.01001-.04004.03003-.06.03003-.03003.01996-.07001.02997-.11005.03998-.02997.01001-.06995.01001-.10999.01001h-.01001c-.03998,0-.07996,0-.12-.01001-.02997,0-.04999-.01001-.07996-.02002-.03003-.01001-.06-.02997-.09003-.04999-.01001-.01001-.02002-.01001-.02002-.02002-.01996-.00995-.02997-.00995-.03998-.01996-.02002-.01001-.03998-.01001-.04999-.03003l-3.85999-3.85999c-.21002-.21002-.21002-.56,0-.77002l.03998-.03998c.21997-.22003.57001-.22003.77997,0l2.87,2.87v-7.16998c0-.32001.25-.57001.57001-.57001h.01001c.31,0,.57001.25.57001.57001v7.16998l2.85999-2.87c.22003-.22003.57001-.22003.78003,0l.03998.03998c.21002.21002.21002.56,0,.77002l-3.85999,3.85999ZM26.35999,31.16998c.02002.02002.04004.03003.04999.04999l-.02997-.03998-.02002-.01001ZM26.38,31.17999l-.02002-.01001c.02002.02002.04004.03003.04999.04999l-.02997-.03998ZM26.38,31.17999l-.02002-.01001c.02002.02002.04004.03003.04999.04999l-.02997-.03998ZM26.38,31.17999l-.02002-.01001c.02002.02002.04004.03003.04999.04999l-.02997-.03998ZM26.38,31.17999l-.02002-.01001c.02002.02002.04004.03003.04999.04999l-.02997-.03998ZM21.38,16.60999c-1.85999,0-3.35999-1.5-3.35999-3.34998v-5.75h-5.52002c-.58002,0-1.04999.46997-1.04999,1.04999v18.77997c0,.58002.46997,1.05005,1.04999,1.05005h6.22998c-.13995-.60004-.20996-1.22003-.20996-1.86005,0-.63.07001-1.22998.19995-1.82001h-5.08997c-.31,0-.57001-.25995-.57001-.57996,0-.16003.06-.30005.16998-.40002.10004-.10999.25-.16998.40002-.16998h5.44c.27997-.72003.64996-1.40002,1.12-2.01001h-6.56c-.31,0-.57001-.26001-.57001-.58002s.26001-.57996.57001-.57996h7.63c1.45996-1.33002,3.39996-2.13,5.52997-2.13h.34003v-1.65002h-5.75ZM20.27002,17.88c0,.26996-.22003.5-.5.5h-6.21002c-.27997,0-.5-.23004-.5-.5v-.15002c0-.27997.22003-.5.5-.5h6.21002c.27997,0,.5.22003.5.5v.15002ZM26.38,31.17999l-.02002-.01001c.02002.02002.04004.03003.04999.04999l-.02997-.03998ZM26.38,31.17999l-.02002-.01001c.02002.02002.04004.03003.04999.04999l-.02997-.03998ZM26.38,31.17999l-.02002-.01001c.02002.02002.04004.03003.04999.04999l-.02997-.03998ZM26.38,31.17999l-.02002-.01001c.02002.02002.04004.03003.04999.04999l-.02997-.03998ZM20.33002,7.51001v5.75c0,.57996.46997,1.04999,1.04999,1.04999h5.75l-6.79999-6.79999ZM20.33002,7.51001v5.75c0,.57996.46997,1.04999,1.04999,1.04999h5.75l-6.79999-6.79999ZM26.38,31.17999l-.02002-.01001c.02002.02002.04004.03003.04999.04999l-.02997-.03998ZM26.38,31.17999l-.02002-.01001c.02002.02002.04004.03003.04999.04999l-.02997-.03998ZM26.38,31.17999l-.02002-.01001c.02002.02002.04004.03003.04999.04999l-.02997-.03998ZM26.38,31.17999l-.02002-.01001c.02002.02002.04004.03003.04999.04999l-.02997-.03998ZM26.38,31.17999l-.02002-.01001c.02002.02002.04004.03003.04999.04999l-.02997-.03998ZM26.38,31.17999l-.02002-.01001c.02002.02002.04004.03003.04999.04999l-.02997-.03998ZM26.38,31.17999l-.02002-.01001c.02002.02002.04004.03003.04999.04999l-.02997-.03998ZM26.38,31.17999l-.02002-.01001c.02002.02002.04004.03003.04999.04999l-.02997-.03998ZM29.44,21.17999c-.71002-.35004-1.48999-.56-2.31-.60999-.10999,0-.22003-.01001-.34003-.01001-2.20996,0-4.13995,1.20996-5.16998,3-.21002.35999-.38.75-.51001,1.14996-.17999.57001-.27997,1.19-.27997,1.82001,0,.65002.09998,1.28003.28998,1.86005.28998.87994.78003,1.65997,1.41003,2.31,1.07996,1.10999,2.58997,1.78998,4.25995,1.78998,3.29004,0,5.97003-2.66998,5.97003-5.96002,0-2.33997-1.35999-4.37-3.32001-5.34998ZM27.19,31.21997c-.02002.02002-.03998.04004-.07001.04999.02002-.00995.03003-.02997.04999-.04999-.02997.03003-.06.04999-.08997.07001-.02002.01001-.04004.03003-.06.03003-.03003.01996-.07001.02997-.11005.03998-.02997.01001-.06995.01001-.10999.01001h-.01001c-.03998,0-.07996,0-.12-.01001-.02997,0-.04999-.01001-.07996-.02002-.03003-.01001-.06-.02997-.09003-.04999-.01001-.01001-.02002-.01001-.02002-.02002-.01996-.00995-.02997-.00995-.03998-.01996-.02002-.01001-.03998-.01001-.04999-.03003l-3.85999-3.85999c-.21002-.21002-.21002-.56,0-.77002l.03998-.03998c.21997-.22003.57001-.22003.77997,0l2.87,2.87v-7.16998c0-.32001.25-.57001.57001-.57001h.01001c.31,0,.57001.25.57001.57001v7.16998l2.85999-2.87c.22003-.22003.57001-.22003.78003,0l.03998.03998c.21002.21002.21002.56,0,.77002l-3.85999,3.85999ZM26.35999,31.16998c.02002.02002.04004.03003.04999.04999l-.02997-.03998-.02002-.01001ZM26.38,31.17999l-.02002-.01001c.02002.02002.04004.03003.04999.04999l-.02997-.03998ZM26.38,31.17999l-.02002-.01001c.02002.02002.04004.03003.04999.04999l-.02997-.03998ZM26.38,31.17999l-.02002-.01001c.02002.02002.04004.03003.04999.04999l-.02997-.03998ZM26.38,31.17999l-.02002-.01001c.02002.02002.04004.03003.04999.04999l-.02997-.03998ZM21.38,16.60999c-1.85999,0-3.35999-1.5-3.35999-3.34998v-5.75h-5.52002c-.58002,0-1.04999.46997-1.04999,1.04999v18.77997c0,.58002.46997,1.05005,1.04999,1.05005h6.22998c-.13995-.60004-.20996-1.22003-.20996-1.86005,0-.63.07001-1.22998.19995-1.82001h-5.08997c-.31,0-.57001-.25995-.57001-.57996,0-.16003.06-.30005.16998-.40002.10004-.10999.25-.16998.40002-.16998h5.44c.27997-.72003.64996-1.40002,1.12-2.01001h-6.56c-.31,0-.57001-.26001-.57001-.58002s.26001-.57996.57001-.57996h7.63c1.45996-1.33002,3.39996-2.13,5.52997-2.13h.34003v-1.65002h-5.75ZM20.27002,17.88c0,.26996-.22003.5-.5.5h-6.21002c-.27997,0-.5-.23004-.5-.5v-.15002c0-.27997.22003-.5.5-.5h6.21002c.27997,0,.5.22003.5.5v.15002ZM26.38,31.17999l-.02002-.01001c.02002.02002.04004.03003.04999.04999l-.02997-.03998ZM26.38,31.17999l-.02002-.01001c.02002.02002.04004.03003.04999.04999l-.02997-.03998ZM26.38,31.17999l-.02002-.01001c.02002.02002.04004.03003.04999.04999l-.02997-.03998ZM26.38,31.17999l-.02002-.01001c.02002.02002.04004.03003.04999.04999l-.02997-.03998ZM26.38,31.17999l-.02002-.01001c.02002.02002.04004.03003.04999.04999l-.02997-.03998ZM26.38,31.17999l-.02002-.01001c.02002.02002.04004.03003.04999.04999l-.02997-.03998ZM26.38,31.17999l-.02002-.01001c.02002.02002.04004.03003.04999.04999l-.02997-.03998ZM26.38,31.17999l-.02002-.01001c.02002.02002.04004.03003.04999.04999l-.02997-.03998ZM26.38,31.17999l-.02002-.01001c.02002.02002.04004.03003.04999.04999l-.02997-.03998ZM26.38,31.17999l-.02002-.01001c.02002.02002.04004.03003.04999.04999l-.02997-.03998ZM26.38,31.17999l-.02002-.01001c.02002.02002.04004.03003.04999.04999l-.02997-.03998ZM26.38,31.17999l-.02002-.01001c.02002.02002.04004.03003.04999.04999l-.02997-.03998ZM29.44,21.17999c-.71002-.35004-1.48999-.56-2.31-.60999-.10999,0-.22003-.01001-.34003-.01001-2.20996,0-4.13995,1.20996-5.16998,3-.21002.35999-.38.75-.51001,1.14996-.17999.57001-.27997,1.19-.27997,1.82001,0,.65002.09998,1.28003.28998,1.86005.28998.87994.78003,1.65997,1.41003,2.31,1.07996,1.10999,2.58997,1.78998,4.25995,1.78998,3.29004,0,5.97003-2.66998,5.97003-5.96002,0-2.33997-1.35999-4.37-3.32001-5.34998ZM27.19,31.21997c-.02002.02002-.03998.04004-.07001.04999.02002-.00995.03003-.02997.04999-.04999-.02997.03003-.06.04999-.08997.07001-.02002.01001-.04004.03003-.06.03003-.03003.01996-.07001.02997-.11005.03998-.02997.01001-.06995.01001-.10999.01001h-.01001c-.03998,0-.07996,0-.12-.01001-.02997,0-.04999-.01001-.07996-.02002-.03003-.01001-.06-.02997-.09003-.04999-.01001-.01001-.02002-.01001-.02002-.02002-.01996-.00995-.02997-.00995-.03998-.01996-.02002-.01001-.03998-.01001-.04999-.03003l-3.85999-3.85999c-.21002-.21002-.21002-.56,0-.77002l.03998-.03998c.21997-.22003.57001-.22003.77997,0l2.87,2.87v-7.16998c0-.32001.25-.57001.57001-.57001h.01001c.31,0,.57001.25.57001.57001v7.16998l2.85999-2.87c.22003-.22003.57001-.22003.78003,0l.03998.03998c.21002.21002.21002.56,0,.77002l-3.85999,3.85999ZM26.35999,31.16998c.02002.02002.04004.03003.04999.04999l-.02997-.03998-.02002-.01001ZM26.38,31.17999l-.02002-.01001c.02002.02002.04004.03003.04999.04999l-.02997-.03998ZM26.38,31.17999l-.02002-.01001c.02002.02002.04004.03003.04999.04999l-.02997-.03998ZM26.38,31.17999l-.02002-.01001c.02002.02002.04004.03003.04999.04999l-.02997-.03998ZM26.38,31.17999l-.02002-.01001c.02002.02002.04004.03003.04999.04999l-.02997-.03998ZM21.38,16.60999c-1.85999,0-3.35999-1.5-3.35999-3.34998v-5.75h-5.52002c-.58002,0-1.04999.46997-1.04999,1.04999v18.77997c0,.58002.46997,1.05005,1.04999,1.05005h6.22998c-.13995-.60004-.20996-1.22003-.20996-1.86005,0-.63.07001-1.22998.19995-1.82001h-5.08997c-.31,0-.57001-.25995-.57001-.57996,0-.16003.06-.30005.16998-.40002.10004-.10999.25-.16998.40002-.16998h5.44c.27997-.72003.64996-1.40002,1.12-2.01001h-6.56c-.31,0-.57001-.26001-.57001-.58002s.26001-.57996.57001-.57996h7.63c1.45996-1.33002,3.39996-2.13,5.52997-2.13h.34003v-1.65002h-5.75ZM20.27002,17.88c0,.26996-.22003.5-.5.5h-6.21002c-.27997,0-.5-.23004-.5-.5v-.15002c0-.27997.22003-.5.5-.5h6.21002c.27997,0,.5.22003.5.5v.15002ZM26.38,31.17999l-.02002-.01001c.02002.02002.04004.03003.04999.04999l-.02997-.03998ZM26.38,31.17999l-.02002-.01001c.02002.02002.04004.03003.04999.04999l-.02997-.03998ZM26.38,31.17999l-.02002-.01001c.02002.02002.04004.03003.04999.04999l-.02997-.03998ZM20.33002,7.51001v5.75c0,.57996.46997,1.04999,1.04999,1.04999h5.75l-6.79999-6.79999ZM26.38,31.17999l-.02002-.01001c.02002.02002.04004.03003.04999.04999l-.02997-.03998ZM26.38,31.17999l-.02002-.01001c.02002.02002.04004.03003.04999.04999l-.02997-.03998ZM20.33002,7.51001v5.75c0,.57996.46997,1.04999,1.04999,1.04999h5.75l-6.79999-6.79999ZM26.38,31.17999l-.02002-.01001c.02002.02002.04004.03003.04999.04999l-.02997-.03998ZM26.38,31.17999l-.02002-.01001c.02002.02002.04004.03003.04999.04999l-.02997-.03998ZM26.38,31.17999l-.02002-.01001c.02002.02002.04004.03003.04999.04999l-.02997-.03998ZM26.38,31.17999l-.02002-.01001c.02002.02002.04004.03003.04999.04999l-.02997-.03998ZM26.38,31.17999l-.02002-.01001c.02002.02002.04004.03003.04999.04999l-.02997-.03998ZM26.38,31.17999l-.02002-.01001c.02002.02002.04004.03003.04999.04999l-.02997-.03998ZM26.38,31.17999l-.02002-.01001c.02002.02002.04004.03003.04999.04999l-.02997-.03998ZM29.44,21.17999c-.71002-.35004-1.48999-.56-2.31-.60999-.10999,0-.22003-.01001-.34003-.01001-2.20996,0-4.13995,1.20996-5.16998,3-.21002.35999-.38.75-.51001,1.14996-.17999.57001-.27997,1.19-.27997,1.82001,0,.65002.09998,1.28003.28998,1.86005.28998.87994.78003,1.65997,1.41003,2.31,1.07996,1.10999,2.58997,1.78998,4.25995,1.78998,3.29004,0,5.97003-2.66998,5.97003-5.96002,0-2.33997-1.35999-4.37-3.32001-5.34998ZM27.19,31.21997c-.02002.02002-.03998.04004-.07001.04999.02002-.00995.03003-.02997.04999-.04999-.02997.03003-.06.04999-.08997.07001-.02002.01001-.04004.03003-.06.03003-.03003.01996-.07001.02997-.11005.03998-.02997.01001-.06995.01001-.10999.01001h-.01001c-.03998,0-.07996,0-.12-.01001-.02997,0-.04999-.01001-.07996-.02002-.03003-.01001-.06-.02997-.09003-.04999-.01001-.01001-.02002-.01001-.02002-.02002-.01996-.00995-.02997-.00995-.03998-.01996-.02002-.01001-.03998-.01001-.04999-.03003l-3.85999-3.85999c-.21002-.21002-.21002-.56,0-.77002l.03998-.03998c.21997-.22003.57001-.22003.77997,0l2.87,2.87v-7.16998c0-.32001.25-.57001.57001-.57001h.01001c.31,0,.57001.25.57001.57001v7.16998l2.85999-2.87c.22003-.22003.57001-.22003.78003,0l.03998.03998c.21002.21002.21002.56,0,.77002l-3.85999,3.85999ZM26.35999,31.16998c.02002.02002.04004.03003.04999.04999l-.02997-.03998-.02002-.01001ZM26.38,31.17999l-.02002-.01001c.02002.02002.04004.03003.04999.04999l-.02997-.03998ZM26.38,31.17999l-.02002-.01001c.02002.02002.04004.03003.04999.04999l-.02997-.03998ZM26.38,31.17999l-.02002-.01001c.02002.02002.04004.03003.04999.04999l-.02997-.03998ZM26.38,31.17999l-.02002-.01001c.02002.02002.04004.03003.04999.04999l-.02997-.03998ZM21.38,16.60999c-1.85999,0-3.35999-1.5-3.35999-3.34998v-5.75h-5.52002c-.58002,0-1.04999.46997-1.04999,1.04999v18.77997c0,.58002.46997,1.05005,1.04999,1.05005h6.22998c-.13995-.60004-.20996-1.22003-.20996-1.86005,0-.63.07001-1.22998.19995-1.82001h-5.08997c-.31,0-.57001-.25995-.57001-.57996,0-.16003.06-.30005.16998-.40002.10004-.10999.25-.16998.40002-.16998h5.44c.27997-.72003.64996-1.40002,1.12-2.01001h-6.56c-.31,0-.57001-.26001-.57001-.58002s.26001-.57996.57001-.57996h7.63c1.45996-1.33002,3.39996-2.13,5.52997-2.13h.34003v-1.65002h-5.75ZM20.27002,17.88c0,.26996-.22003.5-.5.5h-6.21002c-.27997,0-.5-.23004-.5-.5v-.15002c0-.27997.22003-.5.5-.5h6.21002c.27997,0,.5.22003.5.5v.15002ZM26.38,31.17999l-.02002-.01001c.02002.02002.04004.03003.04999.04999l-.02997-.03998ZM26.38,31.17999l-.02002-.01001c.02002.02002.04004.03003.04999.04999l-.02997-.03998ZM26.38,31.17999l-.02002-.01001c.02002.02002.04004.03003.04999.04999l-.02997-.03998ZM26.38,31.17999l-.02002-.01001c.02002.02002.04004.03003.04999.04999l-.02997-.03998ZM26.38,31.17999l-.02002-.01001c.02002.02002.04004.03003.04999.04999l-.02997-.03998ZM26.38,31.17999l-.02002-.01001c.02002.02002.04004.03003.04999.04999l-.02997-.03998ZM26.38,31.17999l-.02002-.01001c.02002.02002.04004.03003.04999.04999l-.02997-.03998ZM26.38,31.17999l-.02002-.01001c.02002.02002.04004.03003.04999.04999l-.02997-.03998ZM29.44,21.17999c-.71002-.35004-1.48999-.56-2.31-.60999-.10999,0-.22003-.01001-.34003-.01001-2.20996,0-4.13995,1.20996-5.16998,3-.21002.35999-.38.75-.51001,1.14996-.17999.57001-.27997,1.19-.27997,1.82001,0,.65002.09998,1.28003.28998,1.86005.28998.87994.78003,1.65997,1.41003,2.31,1.07996,1.10999,2.58997,1.78998,4.25995,1.78998,3.29004,0,5.97003-2.66998,5.97003-5.96002,0-2.33997-1.35999-4.37-3.32001-5.34998ZM27.19,31.21997c-.02002.02002-.03998.04004-.07001.04999.02002-.00995.03003-.02997.04999-.04999-.02997.03003-.06.04999-.08997.07001-.02002.01001-.04004.03003-.06.03003-.03003.01996-.07001.02997-.11005.03998-.02997.01001-.06995.01001-.10999.01001h-.01001c-.03998,0-.07996,0-.12-.01001-.02997,0-.04999-.01001-.07996-.02002-.03003-.01001-.06-.02997-.09003-.04999-.01001-.01001-.02002-.01001-.02002-.02002-.01996-.00995-.02997-.00995-.03998-.01996-.02002-.01001-.03998-.01001-.04999-.03003l-3.85999-3.85999c-.21002-.21002-.21002-.56,0-.77002l.03998-.03998c.21997-.22003.57001-.22003.77997,0l2.87,2.87v-7.16998c0-.32001.25-.57001.57001-.57001h.01001c.31,0,.57001.25.57001.57001v7.16998l2.85999-2.87c.22003-.22003.57001-.22003.78003,0l.03998.03998c.21002.21002.21002.56,0,.77002l-3.85999,3.85999ZM26.35999,31.16998c.02002.02002.04004.03003.04999.04999l-.02997-.03998-.02002-.01001ZM26.38,31.17999l-.02002-.01001c.02002.02002.04004.03003.04999.04999l-.02997-.03998ZM26.38,31.17999l-.02002-.01001c.02002.02002.04004.03003.04999.04999l-.02997-.03998ZM26.38,31.17999l-.02002-.01001c.02002.02002.04004.03003.04999.04999l-.02997-.03998ZM26.38,31.17999l-.02002-.01001c.02002.02002.04004.03003.04999.04999l-.02997-.03998ZM21.38,16.60999c-1.85999,0-3.35999-1.5-3.35999-3.34998v-5.75h-5.52002c-.58002,0-1.04999.46997-1.04999,1.04999v18.77997c0,.58002.46997,1.05005,1.04999,1.05005h6.22998c-.13995-.60004-.20996-1.22003-.20996-1.86005,0-.63.07001-1.22998.19995-1.82001h-5.08997c-.31,0-.57001-.25995-.57001-.57996,0-.16003.06-.30005.16998-.40002.10004-.10999.25-.16998.40002-.16998h5.44c.27997-.72003.64996-1.40002,1.12-2.01001h-6.56c-.31,0-.57001-.26001-.57001-.58002s.26001-.57996.57001-.57996h7.63c1.45996-1.33002,3.39996-2.13,5.52997-2.13h.34003v-1.65002h-5.75ZM20.27002,17.88c0,.26996-.22003.5-.5.5h-6.21002c-.27997,0-.5-.23004-.5-.5v-.15002c0-.27997.22003-.5.5-.5h6.21002c.27997,0,.5.22003.5.5v.15002ZM26.38,31.17999l-.02002-.01001c.02002.02002.04004.03003.04999.04999l-.02997-.03998ZM20.33002,7.51001v5.75c0,.57996.46997,1.04999,1.04999,1.04999h5.75l-6.79999-6.79999ZM26.38,31.17999l-.02002-.01001c.02002.02002.04004.03003.04999.04999l-.02997-.03998ZM26.38,31.17999l-.02002-.01001c.02002.02002.04004.03003.04999.04999l-.02997-.03998ZM20.33002,7.51001v5.75c0,.57996.46997,1.04999,1.04999,1.04999h5.75l-6.79999-6.79999ZM26.38,31.17999l-.02002-.01001c.02002.02002.04004.03003.04999.04999l-.02997-.03998ZM26.38,31.17999l-.02002-.01001c.02002.02002.04004.03003.04999.04999l-.02997-.03998ZM26.38,31.17999l-.02002-.01001c.02002.02002.04004.03003.04999.04999l-.02997-.03998ZM26.38,31.17999l-.02002-.01001c.02002.02002.04004.03003.04999.04999l-.02997-.03998ZM26.38,31.17999l-.02002-.01001c.02002.02002.04004.03003.04999.04999l-.02997-.03998ZM29.44,21.17999c-.71002-.35004-1.48999-.56-2.31-.60999-.10999,0-.22003-.01001-.34003-.01001-2.20996,0-4.13995,1.20996-5.16998,3-.21002.35999-.38.75-.51001,1.14996-.17999.57001-.27997,1.19-.27997,1.82001,0,.65002.09998,1.28003.28998,1.86005.28998.87994.78003,1.65997,1.41003,2.31,1.07996,1.10999,2.58997,1.78998,4.25995,1.78998,3.29004,0,5.97003-2.66998,5.97003-5.96002,0-2.33997-1.35999-4.37-3.32001-5.34998ZM27.19,31.21997c-.02002.02002-.03998.04004-.07001.04999.02002-.00995.03003-.02997.04999-.04999-.02997.03003-.06.04999-.08997.07001-.02002.01001-.04004.03003-.06.03003-.03003.01996-.07001.02997-.11005.03998-.02997.01001-.06995.01001-.10999.01001h-.01001c-.03998,0-.07996,0-.12-.01001-.02997,0-.04999-.01001-.07996-.02002-.03003-.01001-.06-.02997-.09003-.04999-.01001-.01001-.02002-.01001-.02002-.02002-.01996-.00995-.02997-.00995-.03998-.01996-.02002-.01001-.03998-.01001-.04999-.03003l-3.85999-3.85999c-.21002-.21002-.21002-.56,0-.77002l.03998-.03998c.21997-.22003.57001-.22003.77997,0l2.87,2.87v-7.16998c0-.32001.25-.57001.57001-.57001h.01001c.31,0,.57001.25.57001.57001v7.16998l2.85999-2.87c.22003-.22003.57001-.22003.78003,0l.03998.03998c.21002.21002.21002.56,0,.77002l-3.85999,3.85999ZM26.35999,31.16998c.02002.02002.04004.03003.04999.04999l-.02997-.03998-.02002-.01001ZM26.38,31.17999l-.02002-.01001c.02002.02002.04004.03003.04999.04999l-.02997-.03998ZM26.38,31.17999l-.02002-.01001c.02002.02002.04004.03003.04999.04999l-.02997-.03998ZM26.38,31.17999l-.02002-.01001c.02002.02002.04004.03003.04999.04999l-.02997-.03998ZM26.38,31.17999l-.02002-.01001c.02002.02002.04004.03003.04999.04999l-.02997-.03998ZM21.38,16.60999c-1.85999,0-3.35999-1.5-3.35999-3.34998v-5.75h-5.52002c-.58002,0-1.04999.46997-1.04999,1.04999v18.77997c0,.58002.46997,1.05005,1.04999,1.05005h6.22998c-.13995-.60004-.20996-1.22003-.20996-1.86005,0-.63.07001-1.22998.19995-1.82001h-5.08997c-.31,0-.57001-.25995-.57001-.57996,0-.16003.06-.30005.16998-.40002.10004-.10999.25-.16998.40002-.16998h5.44c.27997-.72003.64996-1.40002,1.12-2.01001h-6.56c-.31,0-.57001-.26001-.57001-.58002s.26001-.57996.57001-.57996h7.63c1.45996-1.33002,3.39996-2.13,5.52997-2.13h.34003v-1.65002h-5.75ZM20.27002,17.88c0,.26996-.22003.5-.5.5h-6.21002c-.27997,0-.5-.23004-.5-.5v-.15002c0-.27997.22003-.5.5-.5h6.21002c.27997,0,.5.22003.5.5v.15002ZM26.38,31.17999l-.02002-.01001c.02002.02002.04004.03003.04999.04999l-.02997-.03998ZM26.38,31.17999l-.02002-.01001c.02002.02002.04004.03003.04999.04999l-.02997-.03998ZM26.38,31.17999l-.02002-.01001c.02002.02002.04004.03003.04999.04999l-.02997-.03998ZM26.38,31.17999l-.02002-.01001c.02002.02002.04004.03003.04999.04999l-.02997-.03998ZM29.44,21.17999c-.71002-.35004-1.48999-.56-2.31-.60999-.10999,0-.22003-.01001-.34003-.01001-2.20996,0-4.13995,1.20996-5.16998,3-.21002.35999-.38.75-.51001,1.14996-.17999.57001-.27997,1.19-.27997,1.82001,0,.65002.09998,1.28003.28998,1.86005.28998.87994.78003,1.65997,1.41003,2.31,1.07996,1.10999,2.58997,1.78998,4.25995,1.78998,3.29004,0,5.97003-2.66998,5.97003-5.96002,0-2.33997-1.35999-4.37-3.32001-5.34998ZM27.19,31.21997c-.02002.02002-.03998.04004-.07001.04999.02002-.00995.03003-.02997.04999-.04999-.02997.03003-.06.04999-.08997.07001-.02002.01001-.04004.03003-.06.03003-.03003.01996-.07001.02997-.11005.03998-.02997.01001-.06995.01001-.10999.01001h-.01001c-.03998,0-.07996,0-.12-.01001-.02997,0-.04999-.01001-.07996-.02002-.03003-.01001-.06-.02997-.09003-.04999-.01001-.01001-.02002-.01001-.02002-.02002-.01996-.00995-.02997-.00995-.03998-.01996-.02002-.01001-.03998-.01001-.04999-.03003l-3.85999-3.85999c-.21002-.21002-.21002-.56,0-.77002l.03998-.03998c.21997-.22003.57001-.22003.77997,0l2.87,2.87v-7.16998c0-.32001.25-.57001.57001-.57001h.01001c.31,0,.57001.25.57001.57001v7.16998l2.85999-2.87c.22003-.22003.57001-.22003.78003,0l.03998.03998c.21002.21002.21002.56,0,.77002l-3.85999,3.85999ZM26.35999,31.16998c.02002.02002.04004.03003.04999.04999l-.02997-.03998-.02002-.01001ZM26.38,31.17999l-.02002-.01001c.02002.02002.04004.03003.04999.04999l-.02997-.03998ZM26.38,31.17999l-.02002-.01001c.02002.02002.04004.03003.04999.04999l-.02997-.03998ZM26.38,31.17999l-.02002-.01001c.02002.02002.04004.03003.04999.04999l-.02997-.03998ZM20.33002,7.51001v5.75c0,.57996.46997,1.04999,1.04999,1.04999h5.75l-6.79999-6.79999ZM26.38,31.17999l-.02002-.01001c.02002.02002.04004.03003.04999.04999l-.02997-.03998ZM21.38,16.60999c-1.85999,0-3.35999-1.5-3.35999-3.34998v-5.75h-5.52002c-.58002,0-1.04999.46997-1.04999,1.04999v18.77997c0,.58002.46997,1.05005,1.04999,1.05005h6.22998c-.13995-.60004-.20996-1.22003-.20996-1.86005,0-.63.07001-1.22998.19995-1.82001h-5.08997c-.31,0-.57001-.25995-.57001-.57996,0-.16003.06-.30005.16998-.40002.10004-.10999.25-.16998.40002-.16998h5.44c.27997-.72003.64996-1.40002,1.12-2.01001h-6.56c-.31,0-.57001-.26001-.57001-.58002s.26001-.57996.57001-.57996h7.63c1.45996-1.33002,3.39996-2.13,5.52997-2.13h.34003v-1.65002h-5.75ZM20.27002,17.88c0,.26996-.22003.5-.5.5h-6.21002c-.27997,0-.5-.23004-.5-.5v-.15002c0-.27997.22003-.5.5-.5h6.21002c.27997,0,.5.22003.5.5v.15002ZM21.38,16.60999c-1.85999,0-3.35999-1.5-3.35999-3.34998v-5.75h-5.52002c-.58002,0-1.04999.46997-1.04999,1.04999v18.77997c0,.58002.46997,1.05005,1.04999,1.05005h6.22998c-.13995-.60004-.20996-1.22003-.20996-1.86005,0-.63.07001-1.22998.19995-1.82001h-5.08997c-.31,0-.57001-.25995-.57001-.57996,0-.16003.06-.30005.16998-.40002.10004-.10999.25-.16998.40002-.16998h5.44c.27997-.72003.64996-1.40002,1.12-2.01001h-6.56c-.31,0-.57001-.26001-.57001-.58002s.26001-.57996.57001-.57996h7.63c1.45996-1.33002,3.39996-2.13,5.52997-2.13h.34003v-1.65002h-5.75ZM20.27002,17.88c0,.26996-.22003.5-.5.5h-6.21002c-.27997,0-.5-.23004-.5-.5v-.15002c0-.27997.22003-.5.5-.5h6.21002c.27997,0,.5.22003.5.5v.15002ZM26.38,31.17999l-.02002-.01001c.02002.02002.04004.03003.04999.04999l-.02997-.03998ZM20.33002,7.51001v5.75c0,.57996.46997,1.04999,1.04999,1.04999h5.75l-6.79999-6.79999ZM26.38,31.17999l-.02002-.01001c.02002.02002.04004.03003.04999.04999l-.02997-.03998ZM26.38,31.17999l-.02002-.01001c.02002.02002.04004.03003.04999.04999l-.02997-.03998ZM26.38,31.17999l-.02002-.01001c.02002.02002.04004.03003.04999.04999l-.02997-.03998ZM29.44,21.17999c-.71002-.35004-1.48999-.56-2.31-.60999-.10999,0-.22003-.01001-.34003-.01001-2.20996,0-4.13995,1.20996-5.16998,3-.21002.35999-.38.75-.51001,1.14996-.17999.57001-.27997,1.19-.27997,1.82001,0,.65002.09998,1.28003.28998,1.86005.28998.87994.78003,1.65997,1.41003,2.31,1.07996,1.10999,2.58997,1.78998,4.25995,1.78998,3.29004,0,5.97003-2.66998,5.97003-5.96002,0-2.33997-1.35999-4.37-3.32001-5.34998ZM27.19,31.21997c-.02002.02002-.03998.04004-.07001.04999.02002-.00995.03003-.02997.04999-.04999-.02997.03003-.06.04999-.08997.07001-.02002.01001-.04004.03003-.06.03003-.03003.01996-.07001.02997-.11005.03998-.02997.01001-.06995.01001-.10999.01001h-.01001c-.03998,0-.07996,0-.12-.01001-.02997,0-.04999-.01001-.07996-.02002-.03003-.01001-.06-.02997-.09003-.04999-.01001-.01001-.02002-.01001-.02002-.02002-.01996-.00995-.02997-.00995-.03998-.01996-.02002-.01001-.03998-.01001-.04999-.03003l-3.85999-3.85999c-.21002-.21002-.21002-.56,0-.77002l.03998-.03998c.21997-.22003.57001-.22003.77997,0l2.87,2.87v-7.16998c0-.32001.25-.57001.57001-.57001h.01001c.31,0,.57001.25.57001.57001v7.16998l2.85999-2.87c.22003-.22003.57001-.22003.78003,0l.03998.03998c.21002.21002.21002.56,0,.77002l-3.85999,3.85999ZM26.35999,31.16998c.02002.02002.04004.03003.04999.04999l-.02997-.03998-.02002-.01001ZM26.38,31.17999l-.02002-.01001c.02002.02002.04004.03003.04999.04999l-.02997-.03998ZM26.38,31.17999l-.02002-.01001c.02002.02002.04004.03003.04999.04999l-.02997-.03998ZM26.38,31.17999l-.02002-.01001c.02002.02002.04004.03003.04999.04999l-.02997-.03998ZM26.38,31.17999l-.02002-.01001c.02002.02002.04004.03003.04999.04999l-.02997-.03998ZM29.44,21.17999c-.71002-.35004-1.48999-.56-2.31-.60999-.10999,0-.22003-.01001-.34003-.01001-2.20996,0-4.13995,1.20996-5.16998,3-.21002.35999-.38.75-.51001,1.14996-.17999.57001-.27997,1.19-.27997,1.82001,0,.65002.09998,1.28003.28998,1.86005.28998.87994.78003,1.65997,1.41003,2.31,1.07996,1.10999,2.58997,1.78998,4.25995,1.78998,3.29004,0,5.97003-2.66998,5.97003-5.96002,0-2.33997-1.35999-4.37-3.32001-5.34998ZM27.19,31.21997c-.02002.02002-.03998.04004-.07001.04999.02002-.00995.03003-.02997.04999-.04999-.02997.03003-.06.04999-.08997.07001-.02002.01001-.04004.03003-.06.03003-.03003.01996-.07001.02997-.11005.03998-.02997.01001-.06995.01001-.10999.01001h-.01001c-.03998,0-.07996,0-.12-.01001-.02997,0-.04999-.01001-.07996-.02002-.03003-.01001-.06-.02997-.09003-.04999-.01001-.01001-.02002-.01001-.02002-.02002-.01996-.00995-.02997-.00995-.03998-.01996-.02002-.01001-.03998-.01001-.04999-.03003l-3.85999-3.85999c-.21002-.21002-.21002-.56,0-.77002l.03998-.03998c.21997-.22003.57001-.22003.77997,0l2.87,2.87v-7.16998c0-.32001.25-.57001.57001-.57001h.01001c.31,0,.57001.25.57001.57001v7.16998l2.85999-2.87c.22003-.22003.57001-.22003.78003,0l.03998.03998c.21002.21002.21002.56,0,.77002l-3.85999,3.85999ZM26.35999,31.16998c.02002.02002.04004.03003.04999.04999l-.02997-.03998-.02002-.01001ZM26.38,31.17999l-.02002-.01001c.02002.02002.04004.03003.04999.04999l-.02997-.03998ZM21.38,16.60999c-1.85999,0-3.35999-1.5-3.35999-3.34998v-5.75h-5.52002c-.58002,0-1.04999.46997-1.04999,1.04999v18.77997c0,.58002.46997,1.05005,1.04999,1.05005h6.22998c-.13995-.60004-.20996-1.22003-.20996-1.86005,0-.63.07001-1.22998.19995-1.82001h-5.08997c-.31,0-.57001-.25995-.57001-.57996,0-.16003.06-.30005.16998-.40002.10004-.10999.25-.16998.40002-.16998h5.44c.27997-.72003.64996-1.40002,1.12-2.01001h-6.56c-.31,0-.57001-.26001-.57001-.58002s.26001-.57996.57001-.57996h7.63c1.45996-1.33002,3.39996-2.13,5.52997-2.13h.34003v-1.65002h-5.75ZM20.27002,17.88c0,.26996-.22003.5-.5.5h-6.21002c-.27997,0-.5-.23004-.5-.5v-.15002c0-.27997.22003-.5.5-.5h6.21002c.27997,0,.5.22003.5.5v.15002ZM20.33002,7.51001v5.75c0,.57996.46997,1.04999,1.04999,1.04999h5.75l-6.79999-6.79999ZM26.38,31.17999l-.02002-.01001c.02002.02002.04004.03003.04999.04999l-.02997-.03998ZM26.38,31.17999l-.02002-.01001c.02002.02002.04004.03003.04999.04999l-.02997-.03998ZM20.33002,7.51001v5.75c0,.57996.46997,1.04999,1.04999,1.04999h5.75l-6.79999-6.79999ZM21.38,16.60999c-1.85999,0-3.35999-1.5-3.35999-3.34998v-5.75h-5.52002c-.58002,0-1.04999.46997-1.04999,1.04999v18.77997c0,.58002.46997,1.05005,1.04999,1.05005h6.22998c-.13995-.60004-.20996-1.22003-.20996-1.86005,0-.63.07001-1.22998.19995-1.82001h-5.08997c-.31,0-.57001-.25995-.57001-.57996,0-.16003.06-.30005.16998-.40002.10004-.10999.25-.16998.40002-.16998h5.44c.27997-.72003.64996-1.40002,1.12-2.01001h-6.56c-.31,0-.57001-.26001-.57001-.58002s.26001-.57996.57001-.57996h7.63c1.45996-1.33002,3.39996-2.13,5.52997-2.13h.34003v-1.65002h-5.75ZM20.27002,17.88c0,.26996-.22003.5-.5.5h-6.21002c-.27997,0-.5-.23004-.5-.5v-.15002c0-.27997.22003-.5.5-.5h6.21002c.27997,0,.5.22003.5.5v.15002ZM26.38,31.17999l-.02002-.01001c.02002.02002.04004.03003.04999.04999l-.02997-.03998ZM29.44,21.17999c-.71002-.35004-1.48999-.56-2.31-.60999-.10999,0-.22003-.01001-.34003-.01001-2.20996,0-4.13995,1.20996-5.16998,3-.21002.35999-.38.75-.51001,1.14996-.17999.57001-.27997,1.19-.27997,1.82001,0,.65002.09998,1.28003.28998,1.86005.28998.87994.78003,1.65997,1.41003,2.31,1.07996,1.10999,2.58997,1.78998,4.25995,1.78998,3.29004,0,5.97003-2.66998,5.97003-5.96002,0-2.33997-1.35999-4.37-3.32001-5.34998ZM27.19,31.21997c-.02002.02002-.03998.04004-.07001.04999.02002-.00995.03003-.02997.04999-.04999-.02997.03003-.06.04999-.08997.07001-.02002.01001-.04004.03003-.06.03003-.03003.01996-.07001.02997-.11005.03998-.02997.01001-.06995.01001-.10999.01001h-.01001c-.03998,0-.07996,0-.12-.01001-.02997,0-.04999-.01001-.07996-.02002-.03003-.01001-.06-.02997-.09003-.04999-.01001-.01001-.02002-.01001-.02002-.02002-.01996-.00995-.02997-.00995-.03998-.01996-.02002-.01001-.03998-.01001-.04999-.03003l-3.85999-3.85999c-.21002-.21002-.21002-.56,0-.77002l.03998-.03998c.21997-.22003.57001-.22003.77997,0l2.87,2.87v-7.16998c0-.32001.25-.57001.57001-.57001h.01001c.31,0,.57001.25.57001.57001v7.16998l2.85999-2.87c.22003-.22003.57001-.22003.78003,0l.03998.03998c.21002.21002.21002.56,0,.77002l-3.85999,3.85999ZM26.35999,31.16998c.02002.02002.04004.03003.04999.04999l-.02997-.03998-.02002-.01001ZM29.44,21.17999c-.71002-.35004-1.48999-.56-2.31-.60999-.10999,0-.22003-.01001-.34003-.01001-2.20996,0-4.13995,1.20996-5.16998,3-.21002.35999-.38.75-.51001,1.14996-.17999.57001-.27997,1.19-.27997,1.82001,0,.65002.09998,1.28003.28998,1.86005.28998.87994.78003,1.65997,1.41003,2.31,1.07996,1.10999,2.58997,1.78998,4.25995,1.78998,3.29004,0,5.97003-2.66998,5.97003-5.96002,0-2.33997-1.35999-4.37-3.32001-5.34998ZM27.19,31.21997c-.02002.02002-.03998.04004-.07001.04999.02002-.00995.03003-.02997.04999-.04999-.02997.03003-.06.04999-.08997.07001-.02002.01001-.04004.03003-.06.03003-.03003.01996-.07001.02997-.11005.03998-.02997.01001-.06995.01001-.10999.01001h-.01001c-.03998,0-.07996,0-.12-.01001-.02997,0-.04999-.01001-.07996-.02002-.03003-.01001-.06-.02997-.09003-.04999-.01001-.01001-.02002-.01001-.02002-.02002-.01996-.00995-.02997-.00995-.03998-.01996-.02002-.01001-.03998-.01001-.04999-.03003l-3.85999-3.85999c-.21002-.21002-.21002-.56,0-.77002l.03998-.03998c.21997-.22003.57001-.22003.77997,0l2.87,2.87v-7.16998c0-.32001.25-.57001.57001-.57001h.01001c.31,0,.57001.25.57001.57001v7.16998l2.85999-2.87c.22003-.22003.57001-.22003.78003,0l.03998.03998c.21002.21002.21002.56,0,.77002l-3.85999,3.85999ZM13.06,20.96997c0-.32001.26001-.57996.57001-.57996h7.63c1.45996-1.33002,3.39996-2.13,5.52997-2.13h.34003v-1.65002h-5.75c-1.85999,0-3.35999-1.5-3.35999-3.34998v-5.75h-5.52002c-.58002,0-1.04999.46997-1.04999,1.04999v18.77997c0,.58002.46997,1.05005,1.04999,1.05005h6.22998c-.13995-.60004-.20996-1.22003-.20996-1.86005,0-.63.07001-1.22998.19995-1.82001h-5.08997c-.31,0-.57001-.25995-.57001-.57996,0-.16003.06-.30005.16998-.40002.10004-.10999.25-.16998.40002-.16998h5.44c.27997-.72003.64996-1.40002,1.12-2.01001h-6.56c-.31,0-.57001-.26001-.57001-.58002ZM13.06,17.72998c0-.27997.22003-.5.5-.5h6.21002c.27997,0,.5.22003.5.5v.15002c0,.26996-.22003.5-.5.5h-6.21002c-.27997,0-.5-.23004-.5-.5v-.15002ZM21.38,14.31h5.75l-6.79999-6.79999v5.75c0,.57996.46997,1.04999,1.04999,1.04999ZM26.35999,31.16998c.02002.02002.04004.03003.04999.04999l-.02997-.03998-.02002-.01001ZM20,0C8.95001,0,0,8.95001,0,20s8.95001,20,20,20,20-8.95001,20-20S31.04999,0,20,0ZM26.78998,34.79999c-3.04999,0-5.70996-1.65002-7.13995-4.09998h-7.15002c-1.84998,0-3.35999-1.51001-3.35999-3.36005V8.56c0-1.85999,1.51001-3.35999,3.35999-3.35999h8.78003l8.15997,8.14996v5.34003c3.27002,1.09998,5.62,4.20001,5.62,7.83997,0,4.57001-3.70001,8.27002-8.27002,8.27002ZM29.44,21.17999c-.71002-.35004-1.48999-.56-2.31-.60999-.10999,0-.22003-.01001-.34003-.01001-2.20996,0-4.13995,1.20996-5.16998,3-.21002.35999-.38.75-.51001,1.14996-.17999.57001-.27997,1.19-.27997,1.82001,0,.65002.09998,1.28003.28998,1.86005.28998.87994.78003,1.65997,1.41003,2.31,1.07996,1.10999,2.58997,1.78998,4.25995,1.78998,3.29004,0,5.97003-2.66998,5.97003-5.96002,0-2.33997-1.35999-4.37-3.32001-5.34998ZM27.19,31.21997c-.02002.02002-.03998.04004-.07001.04999.02002-.00995.03003-.02997.04999-.04999-.02997.03003-.06.04999-.08997.07001-.02002.01001-.04004.03003-.06.03003-.03003.01996-.07001.02997-.11005.03998-.02997.01001-.06995.01001-.10999.01001h-.01001c-.03998,0-.07996,0-.12-.01001-.02997,0-.04999-.01001-.07996-.02002-.03003-.01001-.06-.02997-.09003-.04999-.01001-.01001-.02002-.01001-.02002-.02002-.01996-.00995-.02997-.00995-.03998-.01996-.02002-.01001-.03998-.01001-.04999-.03003l-3.85999-3.85999c-.21002-.21002-.21002-.56,0-.77002l.03998-.03998c.21997-.22003.57001-.22003.77997,0l2.87,2.87v-7.16998c0-.32001.25-.57001.57001-.57001h.01001c.31,0,.57001.25.57001.57001v7.16998l2.85999-2.87c.22003-.22003.57001-.22003.78003,0l.03998.03998c.21002.21002.21002.56,0,.77002l-3.85999,3.85999ZM13.06,20.96997c0-.32001.26001-.57996.57001-.57996h7.63c1.45996-1.33002,3.39996-2.13,5.52997-2.13h.34003v-1.65002h-5.75c-1.85999,0-3.35999-1.5-3.35999-3.34998v-5.75h-5.52002c-.58002,0-1.04999.46997-1.04999,1.04999v18.77997c0,.58002.46997,1.05005,1.04999,1.05005h6.22998c-.13995-.60004-.20996-1.22003-.20996-1.86005,0-.63.07001-1.22998.19995-1.82001h-5.08997c-.31,0-.57001-.25995-.57001-.57996,0-.16003.06-.30005.16998-.40002.10004-.10999.25-.16998.40002-.16998h5.44c.27997-.72003.64996-1.40002,1.12-2.01001h-6.56c-.31,0-.57001-.26001-.57001-.58002ZM13.06,17.72998c0-.27997.22003-.5.5-.5h6.21002c.27997,0,.5.22003.5.5v.15002c0,.26996-.22003.5-.5.5h-6.21002c-.27997,0-.5-.23004-.5-.5v-.15002ZM21.38,14.31h5.75l-6.79999-6.79999v5.75c0,.57996.46997,1.04999,1.04999,1.04999ZM26.35999,31.16998c.02002.02002.04004.03003.04999.04999l-.02997-.03998-.02002-.01001ZM26.38,31.17999l-.02002-.01001c.02002.02002.04004.03003.04999.04999l-.02997-.03998ZM20.33002,7.51001v5.75c0,.57996.46997,1.04999,1.04999,1.04999h5.75l-6.79999-6.79999ZM21.38,16.60999c-1.85999,0-3.35999-1.5-3.35999-3.34998v-5.75h-5.52002c-.58002,0-1.04999.46997-1.04999,1.04999v18.77997c0,.58002.46997,1.05005,1.04999,1.05005h6.22998c-.13995-.60004-.20996-1.22003-.20996-1.86005,0-.63.07001-1.22998.19995-1.82001h-5.08997c-.31,0-.57001-.25995-.57001-.57996,0-.16003.06-.30005.16998-.40002.10004-.10999.25-.16998.40002-.16998h5.44c.27997-.72003.64996-1.40002,1.12-2.01001h-6.56c-.31,0-.57001-.26001-.57001-.58002s.26001-.57996.57001-.57996h7.63c1.45996-1.33002,3.39996-2.13,5.52997-2.13h.34003v-1.65002h-5.75ZM20.27002,17.88c0,.26996-.22003.5-.5.5h-6.21002c-.27997,0-.5-.23004-.5-.5v-.15002c0-.27997.22003-.5.5-.5h6.21002c.27997,0,.5.22003.5.5v.15002ZM26.38,31.17999l-.02002-.01001c.02002.02002.04004.03003.04999.04999l-.02997-.03998ZM29.44,21.17999c-.71002-.35004-1.48999-.56-2.31-.60999-.10999,0-.22003-.01001-.34003-.01001-2.20996,0-4.13995,1.20996-5.16998,3-.21002.35999-.38.75-.51001,1.14996-.17999.57001-.27997,1.19-.27997,1.82001,0,.65002.09998,1.28003.28998,1.86005.28998.87994.78003,1.65997,1.41003,2.31,1.07996,1.10999,2.58997,1.78998,4.25995,1.78998,3.29004,0,5.97003-2.66998,5.97003-5.96002,0-2.33997-1.35999-4.37-3.32001-5.34998ZM27.19,31.21997c-.02002.02002-.03998.04004-.07001.04999.02002-.00995.03003-.02997.04999-.04999-.02997.03003-.06.04999-.08997.07001-.02002.01001-.04004.03003-.06.03003-.03003.01996-.07001.02997-.11005.03998-.02997.01001-.06995.01001-.10999.01001h-.01001c-.03998,0-.07996,0-.12-.01001-.02997,0-.04999-.01001-.07996-.02002-.03003-.01001-.06-.02997-.09003-.04999-.01001-.01001-.02002-.01001-.02002-.02002-.01996-.00995-.02997-.00995-.03998-.01996-.02002-.01001-.03998-.01001-.04999-.03003l-3.85999-3.85999c-.21002-.21002-.21002-.56,0-.77002l.03998-.03998c.21997-.22003.57001-.22003.77997,0l2.87,2.87v-7.16998c0-.32001.25-.57001.57001-.57001h.01001c.31,0,.57001.25.57001.57001v7.16998l2.85999-2.87c.22003-.22003.57001-.22003.78003,0l.03998.03998c.21002.21002.21002.56,0,.77002l-3.85999,3.85999ZM26.35999,31.16998c.02002.02002.04004.03003.04999.04999l-.02997-.03998-.02002-.01001ZM26.38,31.17999l-.02002-.01001c.02002.02002.04004.03003.04999.04999l-.02997-.03998ZM26.38,31.17999l-.02002-.01001c.02002.02002.04004.03003.04999.04999l-.02997-.03998ZM29.44,21.17999c-.71002-.35004-1.48999-.56-2.31-.60999-.10999,0-.22003-.01001-.34003-.01001-2.20996,0-4.13995,1.20996-5.16998,3-.21002.35999-.38.75-.51001,1.14996-.17999.57001-.27997,1.19-.27997,1.82001,0,.65002.09998,1.28003.28998,1.86005.28998.87994.78003,1.65997,1.41003,2.31,1.07996,1.10999,2.58997,1.78998,4.25995,1.78998,3.29004,0,5.97003-2.66998,5.97003-5.96002,0-2.33997-1.35999-4.37-3.32001-5.34998ZM27.19,31.21997c-.02002.02002-.03998.04004-.07001.04999.02002-.00995.03003-.02997.04999-.04999-.02997.03003-.06.04999-.08997.07001-.02002.01001-.04004.03003-.06.03003-.03003.01996-.07001.02997-.11005.03998-.02997.01001-.06995.01001-.10999.01001h-.01001c-.03998,0-.07996,0-.12-.01001-.02997,0-.04999-.01001-.07996-.02002-.03003-.01001-.06-.02997-.09003-.04999-.01001-.01001-.02002-.01001-.02002-.02002-.01996-.00995-.02997-.00995-.03998-.01996-.02002-.01001-.03998-.01001-.04999-.03003l-3.85999-3.85999c-.21002-.21002-.21002-.56,0-.77002l.03998-.03998c.21997-.22003.57001-.22003.77997,0l2.87,2.87v-7.16998c0-.32001.25-.57001.57001-.57001h.01001c.31,0,.57001.25.57001.57001v7.16998l2.85999-2.87c.22003-.22003.57001-.22003.78003,0l.03998.03998c.21002.21002.21002.56,0,.77002l-3.85999,3.85999ZM26.35999,31.16998c.02002.02002.04004.03003.04999.04999l-.02997-.03998-.02002-.01001ZM26.38,31.17999l-.02002-.01001c.02002.02002.04004.03003.04999.04999l-.02997-.03998ZM21.38,16.60999c-1.85999,0-3.35999-1.5-3.35999-3.34998v-5.75h-5.52002c-.58002,0-1.04999.46997-1.04999,1.04999v18.77997c0,.58002.46997,1.05005,1.04999,1.05005h6.22998c-.13995-.60004-.20996-1.22003-.20996-1.86005,0-.63.07001-1.22998.19995-1.82001h-5.08997c-.31,0-.57001-.25995-.57001-.57996,0-.16003.06-.30005.16998-.40002.10004-.10999.25-.16998.40002-.16998h5.44c.27997-.72003.64996-1.40002,1.12-2.01001h-6.56c-.31,0-.57001-.26001-.57001-.58002s.26001-.57996.57001-.57996h7.63c1.45996-1.33002,3.39996-2.13,5.52997-2.13h.34003v-1.65002h-5.75ZM20.27002,17.88c0,.26996-.22003.5-.5.5h-6.21002c-.27997,0-.5-.23004-.5-.5v-.15002c0-.27997.22003-.5.5-.5h6.21002c.27997,0,.5.22003.5.5v.15002ZM20.33002,7.51001v5.75c0,.57996.46997,1.04999,1.04999,1.04999h5.75l-6.79999-6.79999ZM26.38,31.17999l-.02002-.01001c.02002.02002.04004.03003.04999.04999l-.02997-.03998ZM21.38,16.60999c-1.85999,0-3.35999-1.5-3.35999-3.34998v-5.75h-5.52002c-.58002,0-1.04999.46997-1.04999,1.04999v18.77997c0,.58002.46997,1.05005,1.04999,1.05005h6.22998c-.13995-.60004-.20996-1.22003-.20996-1.86005,0-.63.07001-1.22998.19995-1.82001h-5.08997c-.31,0-.57001-.25995-.57001-.57996,0-.16003.06-.30005.16998-.40002.10004-.10999.25-.16998.40002-.16998h5.44c.27997-.72003.64996-1.40002,1.12-2.01001h-6.56c-.31,0-.57001-.26001-.57001-.58002s.26001-.57996.57001-.57996h7.63c1.45996-1.33002,3.39996-2.13,5.52997-2.13h.34003v-1.65002h-5.75ZM20.27002,17.88c0,.26996-.22003.5-.5.5h-6.21002c-.27997,0-.5-.23004-.5-.5v-.15002c0-.27997.22003-.5.5-.5h6.21002c.27997,0,.5.22003.5.5v.15002ZM26.38,31.17999l-.02002-.01001c.02002.02002.04004.03003.04999.04999l-.02997-.03998ZM20.33002,7.51001v5.75c0,.57996.46997,1.04999,1.04999,1.04999h5.75l-6.79999-6.79999ZM26.38,31.17999l-.02002-.01001c.02002.02002.04004.03003.04999.04999l-.02997-.03998ZM26.38,31.17999l-.02002-.01001c.02002.02002.04004.03003.04999.04999l-.02997-.03998ZM26.38,31.17999l-.02002-.01001c.02002.02002.04004.03003.04999.04999l-.02997-.03998ZM29.44,21.17999c-.71002-.35004-1.48999-.56-2.31-.60999-.10999,0-.22003-.01001-.34003-.01001-2.20996,0-4.13995,1.20996-5.16998,3-.21002.35999-.38.75-.51001,1.14996-.17999.57001-.27997,1.19-.27997,1.82001,0,.65002.09998,1.28003.28998,1.86005.28998.87994.78003,1.65997,1.41003,2.31,1.07996,1.10999,2.58997,1.78998,4.25995,1.78998,3.29004,0,5.97003-2.66998,5.97003-5.96002,0-2.33997-1.35999-4.37-3.32001-5.34998ZM27.19,31.21997c-.02002.02002-.03998.04004-.07001.04999.02002-.00995.03003-.02997.04999-.04999-.02997.03003-.06.04999-.08997.07001-.02002.01001-.04004.03003-.06.03003-.03003.01996-.07001.02997-.11005.03998-.02997.01001-.06995.01001-.10999.01001h-.01001c-.03998,0-.07996,0-.12-.01001-.02997,0-.04999-.01001-.07996-.02002-.03003-.01001-.06-.02997-.09003-.04999-.01001-.01001-.02002-.01001-.02002-.02002-.01996-.00995-.02997-.00995-.03998-.01996-.02002-.01001-.03998-.01001-.04999-.03003l-3.85999-3.85999c-.21002-.21002-.21002-.56,0-.77002l.03998-.03998c.21997-.22003.57001-.22003.77997,0l2.87,2.87v-7.16998c0-.32001.25-.57001.57001-.57001h.01001c.31,0,.57001.25.57001.57001v7.16998l2.85999-2.87c.22003-.22003.57001-.22003.78003,0l.03998.03998c.21002.21002.21002.56,0,.77002l-3.85999,3.85999ZM26.35999,31.16998c.02002.02002.04004.03003.04999.04999l-.02997-.03998-.02002-.01001ZM26.38,31.17999l-.02002-.01001c.02002.02002.04004.03003.04999.04999l-.02997-.03998ZM26.38,31.17999l-.02002-.01001c.02002.02002.04004.03003.04999.04999l-.02997-.03998ZM26.38,31.17999l-.02002-.01001c.02002.02002.04004.03003.04999.04999l-.02997-.03998ZM26.38,31.17999l-.02002-.01001c.02002.02002.04004.03003.04999.04999l-.02997-.03998ZM26.38,31.17999l-.02002-.01001c.02002.02002.04004.03003.04999.04999l-.02997-.03998ZM26.38,31.17999l-.02002-.01001c.02002.02002.04004.03003.04999.04999l-.02997-.03998ZM29.44,21.17999c-.71002-.35004-1.48999-.56-2.31-.60999-.10999,0-.22003-.01001-.34003-.01001-2.20996,0-4.13995,1.20996-5.16998,3-.21002.35999-.38.75-.51001,1.14996-.17999.57001-.27997,1.19-.27997,1.82001,0,.65002.09998,1.28003.28998,1.86005.28998.87994.78003,1.65997,1.41003,2.31,1.07996,1.10999,2.58997,1.78998,4.25995,1.78998,3.29004,0,5.97003-2.66998,5.97003-5.96002,0-2.33997-1.35999-4.37-3.32001-5.34998ZM27.19,31.21997c-.02002.02002-.03998.04004-.07001.04999.02002-.00995.03003-.02997.04999-.04999-.02997.03003-.06.04999-.08997.07001-.02002.01001-.04004.03003-.06.03003-.03003.01996-.07001.02997-.11005.03998-.02997.01001-.06995.01001-.10999.01001h-.01001c-.03998,0-.07996,0-.12-.01001-.02997,0-.04999-.01001-.07996-.02002-.03003-.01001-.06-.02997-.09003-.04999-.01001-.01001-.02002-.01001-.02002-.02002-.01996-.00995-.02997-.00995-.03998-.01996-.02002-.01001-.03998-.01001-.04999-.03003l-3.85999-3.85999c-.21002-.21002-.21002-.56,0-.77002l.03998-.03998c.21997-.22003.57001-.22003.77997,0l2.87,2.87v-7.16998c0-.32001.25-.57001.57001-.57001h.01001c.31,0,.57001.25.57001.57001v7.16998l2.85999-2.87c.22003-.22003.57001-.22003.78003,0l.03998.03998c.21002.21002.21002.56,0,.77002l-3.85999,3.85999ZM26.35999,31.16998c.02002.02002.04004.03003.04999.04999l-.02997-.03998-.02002-.01001ZM26.38,31.17999l-.02002-.01001c.02002.02002.04004.03003.04999.04999l-.02997-.03998ZM26.38,31.17999l-.02002-.01001c.02002.02002.04004.03003.04999.04999l-.02997-.03998ZM26.38,31.17999l-.02002-.01001c.02002.02002.04004.03003.04999.04999l-.02997-.03998ZM20.33002,7.51001v5.75c0,.57996.46997,1.04999,1.04999,1.04999h5.75l-6.79999-6.79999ZM26.38,31.17999l-.02002-.01001c.02002.02002.04004.03003.04999.04999l-.02997-.03998ZM21.38,16.60999c-1.85999,0-3.35999-1.5-3.35999-3.34998v-5.75h-5.52002c-.58002,0-1.04999.46997-1.04999,1.04999v18.77997c0,.58002.46997,1.05005,1.04999,1.05005h6.22998c-.13995-.60004-.20996-1.22003-.20996-1.86005,0-.63.07001-1.22998.19995-1.82001h-5.08997c-.31,0-.57001-.25995-.57001-.57996,0-.16003.06-.30005.16998-.40002.10004-.10999.25-.16998.40002-.16998h5.44c.27997-.72003.64996-1.40002,1.12-2.01001h-6.56c-.31,0-.57001-.26001-.57001-.58002s.26001-.57996.57001-.57996h7.63c1.45996-1.33002,3.39996-2.13,5.52997-2.13h.34003v-1.65002h-5.75ZM20.27002,17.88c0,.26996-.22003.5-.5.5h-6.21002c-.27997,0-.5-.23004-.5-.5v-.15002c0-.27997.22003-.5.5-.5h6.21002c.27997,0,.5.22003.5.5v.15002ZM26.38,31.17999l-.02002-.01001c.02002.02002.04004.03003.04999.04999l-.02997-.03998ZM20.33002,7.51001v5.75c0,.57996.46997,1.04999,1.04999,1.04999h5.75l-6.79999-6.79999ZM26.38,31.17999l-.02002-.01001c.02002.02002.04004.03003.04999.04999l-.02997-.03998ZM26.38,31.17999l-.02002-.01001c.02002.02002.04004.03003.04999.04999l-.02997-.03998ZM26.38,31.17999l-.02002-.01001c.02002.02002.04004.03003.04999.04999l-.02997-.03998ZM26.38,31.17999l-.02002-.01001c.02002.02002.04004.03003.04999.04999l-.02997-.03998ZM26.38,31.17999l-.02002-.01001c.02002.02002.04004.03003.04999.04999l-.02997-.03998ZM29.44,21.17999c-.71002-.35004-1.48999-.56-2.31-.60999-.10999,0-.22003-.01001-.34003-.01001-2.20996,0-4.13995,1.20996-5.16998,3-.21002.35999-.38.75-.51001,1.14996-.17999.57001-.27997,1.19-.27997,1.82001,0,.65002.09998,1.28003.28998,1.86005.28998.87994.78003,1.65997,1.41003,2.31,1.07996,1.10999,2.58997,1.78998,4.25995,1.78998,3.29004,0,5.97003-2.66998,5.97003-5.96002,0-2.33997-1.35999-4.37-3.32001-5.34998ZM27.19,31.21997c-.02002.02002-.03998.04004-.07001.04999.02002-.00995.03003-.02997.04999-.04999-.02997.03003-.06.04999-.08997.07001-.02002.01001-.04004.03003-.06.03003-.03003.01996-.07001.02997-.11005.03998-.02997.01001-.06995.01001-.10999.01001h-.01001c-.03998,0-.07996,0-.12-.01001-.02997,0-.04999-.01001-.07996-.02002-.03003-.01001-.06-.02997-.09003-.04999-.01001-.01001-.02002-.01001-.02002-.02002-.01996-.00995-.02997-.00995-.03998-.01996-.02002-.01001-.03998-.01001-.04999-.03003l-3.85999-3.85999c-.21002-.21002-.21002-.56,0-.77002l.03998-.03998c.21997-.22003.57001-.22003.77997,0l2.87,2.87v-7.16998c0-.32001.25-.57001.57001-.57001h.01001c.31,0,.57001.25.57001.57001v7.16998l2.85999-2.87c.22003-.22003.57001-.22003.78003,0l.03998.03998c.21002.21002.21002.56,0,.77002l-3.85999,3.85999ZM26.35999,31.16998c.02002.02002.04004.03003.04999.04999l-.02997-.03998-.02002-.01001ZM26.38,31.17999l-.02002-.01001c.02002.02002.04004.03003.04999.04999l-.02997-.03998ZM26.38,31.17999l-.02002-.01001c.02002.02002.04004.03003.04999.04999l-.02997-.03998ZM26.38,31.17999l-.02002-.01001c.02002.02002.04004.03003.04999.04999l-.02997-.03998ZM26.38,31.17999l-.02002-.01001c.02002.02002.04004.03003.04999.04999l-.02997-.03998ZM21.38,16.60999c-1.85999,0-3.35999-1.5-3.35999-3.34998v-5.75h-5.52002c-.58002,0-1.04999.46997-1.04999,1.04999v18.77997c0,.58002.46997,1.05005,1.04999,1.05005h6.22998c-.13995-.60004-.20996-1.22003-.20996-1.86005,0-.63.07001-1.22998.19995-1.82001h-5.08997c-.31,0-.57001-.25995-.57001-.57996,0-.16003.06-.30005.16998-.40002.10004-.10999.25-.16998.40002-.16998h5.44c.27997-.72003.64996-1.40002,1.12-2.01001h-6.56c-.31,0-.57001-.26001-.57001-.58002s.26001-.57996.57001-.57996h7.63c1.45996-1.33002,3.39996-2.13,5.52997-2.13h.34003v-1.65002h-5.75ZM20.27002,17.88c0,.26996-.22003.5-.5.5h-6.21002c-.27997,0-.5-.23004-.5-.5v-.15002c0-.27997.22003-.5.5-.5h6.21002c.27997,0,.5.22003.5.5v.15002ZM26.38,31.17999l-.02002-.01001c.02002.02002.04004.03003.04999.04999l-.02997-.03998ZM26.38,31.17999l-.02002-.01001c.02002.02002.04004.03003.04999.04999l-.02997-.03998ZM26.38,31.17999l-.02002-.01001c.02002.02002.04004.03003.04999.04999l-.02997-.03998ZM26.38,31.17999l-.02002-.01001c.02002.02002.04004.03003.04999.04999l-.02997-.03998ZM26.38,31.17999l-.02002-.01001c.02002.02002.04004.03003.04999.04999l-.02997-.03998ZM26.38,31.17999l-.02002-.01001c.02002.02002.04004.03003.04999.04999l-.02997-.03998ZM29.44,21.17999c-.71002-.35004-1.48999-.56-2.31-.60999-.10999,0-.22003-.01001-.34003-.01001-2.20996,0-4.13995,1.20996-5.16998,3-.21002.35999-.38.75-.51001,1.14996-.17999.57001-.27997,1.19-.27997,1.82001,0,.65002.09998,1.28003.28998,1.86005.28998.87994.78003,1.65997,1.41003,2.31,1.07996,1.10999,2.58997,1.78998,4.25995,1.78998,3.29004,0,5.97003-2.66998,5.97003-5.96002,0-2.33997-1.35999-4.37-3.32001-5.34998ZM27.19,31.21997c-.02002.02002-.03998.04004-.07001.04999.02002-.00995.03003-.02997.04999-.04999-.02997.03003-.06.04999-.08997.07001-.02002.01001-.04004.03003-.06.03003-.03003.01996-.07001.02997-.11005.03998-.02997.01001-.06995.01001-.10999.01001h-.01001c-.03998,0-.07996,0-.12-.01001-.02997,0-.04999-.01001-.07996-.02002-.03003-.01001-.06-.02997-.09003-.04999-.01001-.01001-.02002-.01001-.02002-.02002-.01996-.00995-.02997-.00995-.03998-.01996-.02002-.01001-.03998-.01001-.04999-.03003l-3.85999-3.85999c-.21002-.21002-.21002-.56,0-.77002l.03998-.03998c.21997-.22003.57001-.22003.77997,0l2.87,2.87v-7.16998c0-.32001.25-.57001.57001-.57001h.01001c.31,0,.57001.25.57001.57001v7.16998l2.85999-2.87c.22003-.22003.57001-.22003.78003,0l.03998.03998c.21002.21002.21002.56,0,.77002l-3.85999,3.85999ZM26.35999,31.16998c.02002.02002.04004.03003.04999.04999l-.02997-.03998-.02002-.01001ZM26.38,31.17999l-.02002-.01001c.02002.02002.04004.03003.04999.04999l-.02997-.03998ZM26.38,31.17999l-.02002-.01001c.02002.02002.04004.03003.04999.04999l-.02997-.03998ZM26.38,31.17999l-.02002-.01001c.02002.02002.04004.03003.04999.04999l-.02997-.03998ZM26.38,31.17999l-.02002-.01001c.02002.02002.04004.03003.04999.04999l-.02997-.03998ZM21.38,16.60999c-1.85999,0-3.35999-1.5-3.35999-3.34998v-5.75h-5.52002c-.58002,0-1.04999.46997-1.04999,1.04999v18.77997c0,.58002.46997,1.05005,1.04999,1.05005h6.22998c-.13995-.60004-.20996-1.22003-.20996-1.86005,0-.63.07001-1.22998.19995-1.82001h-5.08997c-.31,0-.57001-.25995-.57001-.57996,0-.16003.06-.30005.16998-.40002.10004-.10999.25-.16998.40002-.16998h5.44c.27997-.72003.64996-1.40002,1.12-2.01001h-6.56c-.31,0-.57001-.26001-.57001-.58002s.26001-.57996.57001-.57996h7.63c1.45996-1.33002,3.39996-2.13,5.52997-2.13h.34003v-1.65002h-5.75ZM20.27002,17.88c0,.26996-.22003.5-.5.5h-6.21002c-.27997,0-.5-.23004-.5-.5v-.15002c0-.27997.22003-.5.5-.5h6.21002c.27997,0,.5.22003.5.5v.15002ZM26.38,31.17999l-.02002-.01001c.02002.02002.04004.03003.04999.04999l-.02997-.03998ZM20.33002,7.51001v5.75c0,.57996.46997,1.04999,1.04999,1.04999h5.75l-6.79999-6.79999ZM26.38,31.17999l-.02002-.01001c.02002.02002.04004.03003.04999.04999l-.02997-.03998ZM26.38,31.17999l-.02002-.01001c.02002.02002.04004.03003.04999.04999l-.02997-.03998ZM20.33002,7.51001v5.75c0,.57996.46997,1.04999,1.04999,1.04999h5.75l-6.79999-6.79999ZM26.38,31.17999l-.02002-.01001c.02002.02002.04004.03003.04999.04999l-.02997-.03998ZM26.38,31.17999l-.02002-.01001c.02002.02002.04004.03003.04999.04999l-.02997-.03998ZM26.38,31.17999l-.02002-.01001c.02002.02002.04004.03003.04999.04999l-.02997-.03998ZM26.38,31.17999l-.02002-.01001c.02002.02002.04004.03003.04999.04999l-.02997-.03998ZM26.38,31.17999l-.02002-.01001c.02002.02002.04004.03003.04999.04999l-.02997-.03998ZM26.38,31.17999l-.02002-.01001c.02002.02002.04004.03003.04999.04999l-.02997-.03998ZM26.38,31.17999l-.02002-.01001c.02002.02002.04004.03003.04999.04999l-.02997-.03998ZM29.44,21.17999c-.71002-.35004-1.48999-.56-2.31-.60999-.10999,0-.22003-.01001-.34003-.01001-2.20996,0-4.13995,1.20996-5.16998,3-.21002.35999-.38.75-.51001,1.14996-.17999.57001-.27997,1.19-.27997,1.82001,0,.65002.09998,1.28003.28998,1.86005.28998.87994.78003,1.65997,1.41003,2.31,1.07996,1.10999,2.58997,1.78998,4.25995,1.78998,3.29004,0,5.97003-2.66998,5.97003-5.96002,0-2.33997-1.35999-4.37-3.32001-5.34998ZM27.19,31.21997c-.02002.02002-.03998.04004-.07001.04999.02002-.00995.03003-.02997.04999-.04999-.02997.03003-.06.04999-.08997.07001-.02002.01001-.04004.03003-.06.03003-.03003.01996-.07001.02997-.11005.03998-.02997.01001-.06995.01001-.10999.01001h-.01001c-.03998,0-.07996,0-.12-.01001-.02997,0-.04999-.01001-.07996-.02002-.03003-.01001-.06-.02997-.09003-.04999-.01001-.01001-.02002-.01001-.02002-.02002-.01996-.00995-.02997-.00995-.03998-.01996-.02002-.01001-.03998-.01001-.04999-.03003l-3.85999-3.85999c-.21002-.21002-.21002-.56,0-.77002l.03998-.03998c.21997-.22003.57001-.22003.77997,0l2.87,2.87v-7.16998c0-.32001.25-.57001.57001-.57001h.01001c.31,0,.57001.25.57001.57001v7.16998l2.85999-2.87c.22003-.22003.57001-.22003.78003,0l.03998.03998c.21002.21002.21002.56,0,.77002l-3.85999,3.85999ZM26.35999,31.16998c.02002.02002.04004.03003.04999.04999l-.02997-.03998-.02002-.01001ZM26.38,31.17999l-.02002-.01001c.02002.02002.04004.03003.04999.04999l-.02997-.03998ZM26.38,31.17999l-.02002-.01001c.02002.02002.04004.03003.04999.04999l-.02997-.03998ZM26.38,31.17999l-.02002-.01001c.02002.02002.04004.03003.04999.04999l-.02997-.03998ZM26.38,31.17999l-.02002-.01001c.02002.02002.04004.03003.04999.04999l-.02997-.03998ZM21.38,16.60999c-1.85999,0-3.35999-1.5-3.35999-3.34998v-5.75h-5.52002c-.58002,0-1.04999.46997-1.04999,1.04999v18.77997c0,.58002.46997,1.05005,1.04999,1.05005h6.22998c-.13995-.60004-.20996-1.22003-.20996-1.86005,0-.63.07001-1.22998.19995-1.82001h-5.08997c-.31,0-.57001-.25995-.57001-.57996,0-.16003.06-.30005.16998-.40002.10004-.10999.25-.16998.40002-.16998h5.44c.27997-.72003.64996-1.40002,1.12-2.01001h-6.56c-.31,0-.57001-.26001-.57001-.58002s.26001-.57996.57001-.57996h7.63c1.45996-1.33002,3.39996-2.13,5.52997-2.13h.34003v-1.65002h-5.75ZM20.27002,17.88c0,.26996-.22003.5-.5.5h-6.21002c-.27997,0-.5-.23004-.5-.5v-.15002c0-.27997.22003-.5.5-.5h6.21002c.27997,0,.5.22003.5.5v.15002ZM26.38,31.17999l-.02002-.01001c.02002.02002.04004.03003.04999.04999l-.02997-.03998ZM26.38,31.17999l-.02002-.01001c.02002.02002.04004.03003.04999.04999l-.02997-.03998ZM26.38,31.17999l-.02002-.01001c.02002.02002.04004.03003.04999.04999l-.02997-.03998ZM26.38,31.17999l-.02002-.01001c.02002.02002.04004.03003.04999.04999l-.02997-.03998ZM26.38,31.17999l-.02002-.01001c.02002.02002.04004.03003.04999.04999l-.02997-.03998ZM26.38,31.17999l-.02002-.01001c.02002.02002.04004.03003.04999.04999l-.02997-.03998ZM26.38,31.17999l-.02002-.01001c.02002.02002.04004.03003.04999.04999l-.02997-.03998ZM26.38,31.17999l-.02002-.01001c.02002.02002.04004.03003.04999.04999l-.02997-.03998ZM26.38,31.17999l-.02002-.01001c.02002.02002.04004.03003.04999.04999l-.02997-.03998ZM26.38,31.17999l-.02002-.01001c.02002.02002.04004.03003.04999.04999l-.02997-.03998ZM29.44,21.17999c-.71002-.35004-1.48999-.56-2.31-.60999-.10999,0-.22003-.01001-.34003-.01001-2.20996,0-4.13995,1.20996-5.16998,3-.21002.35999-.38.75-.51001,1.14996-.17999.57001-.27997,1.19-.27997,1.82001,0,.65002.09998,1.28003.28998,1.86005.28998.87994.78003,1.65997,1.41003,2.31,1.07996,1.10999,2.58997,1.78998,4.25995,1.78998,3.29004,0,5.97003-2.66998,5.97003-5.96002,0-2.33997-1.35999-4.37-3.32001-5.34998ZM27.19,31.21997c-.02002.02002-.03998.04004-.07001.04999.02002-.00995.03003-.02997.04999-.04999-.02997.03003-.06.04999-.08997.07001-.02002.01001-.04004.03003-.06.03003-.03003.01996-.07001.02997-.11005.03998-.02997.01001-.06995.01001-.10999.01001h-.01001c-.03998,0-.07996,0-.12-.01001-.02997,0-.04999-.01001-.07996-.02002-.03003-.01001-.06-.02997-.09003-.04999-.01001-.01001-.02002-.01001-.02002-.02002-.01996-.00995-.02997-.00995-.03998-.01996-.02002-.01001-.03998-.01001-.04999-.03003l-3.85999-3.85999c-.21002-.21002-.21002-.56,0-.77002l.03998-.03998c.21997-.22003.57001-.22003.77997,0l2.87,2.87v-7.16998c0-.32001.25-.57001.57001-.57001h.01001c.31,0,.57001.25.57001.57001v7.16998l2.85999-2.87c.22003-.22003.57001-.22003.78003,0l.03998.03998c.21002.21002.21002.56,0,.77002l-3.85999,3.85999ZM26.35999,31.16998c.02002.02002.04004.03003.04999.04999l-.02997-.03998-.02002-.01001ZM26.38,31.17999l-.02002-.01001c.02002.02002.04004.03003.04999.04999l-.02997-.03998ZM26.38,31.17999l-.02002-.01001c.02002.02002.04004.03003.04999.04999l-.02997-.03998ZM26.38,31.17999l-.02002-.01001c.02002.02002.04004.03003.04999.04999l-.02997-.03998ZM26.38,31.17999l-.02002-.01001c.02002.02002.04004.03003.04999.04999l-.02997-.03998ZM21.38,16.60999c-1.85999,0-3.35999-1.5-3.35999-3.34998v-5.75h-5.52002c-.58002,0-1.04999.46997-1.04999,1.04999v18.77997c0,.58002.46997,1.05005,1.04999,1.05005h6.22998c-.13995-.60004-.20996-1.22003-.20996-1.86005,0-.63.07001-1.22998.19995-1.82001h-5.08997c-.31,0-.57001-.25995-.57001-.57996,0-.16003.06-.30005.16998-.40002.10004-.10999.25-.16998.40002-.16998h5.44c.27997-.72003.64996-1.40002,1.12-2.01001h-6.56c-.31,0-.57001-.26001-.57001-.58002s.26001-.57996.57001-.57996h7.63c1.45996-1.33002,3.39996-2.13,5.52997-2.13h.34003v-1.65002h-5.75ZM20.27002,17.88c0,.26996-.22003.5-.5.5h-6.21002c-.27997,0-.5-.23004-.5-.5v-.15002c0-.27997.22003-.5.5-.5h6.21002c.27997,0,.5.22003.5.5v.15002ZM26.38,31.17999l-.02002-.01001c.02002.02002.04004.03003.04999.04999l-.02997-.03998ZM26.38,31.17999l-.02002-.01001c.02002.02002.04004.03003.04999.04999l-.02997-.03998ZM26.38,31.17999l-.02002-.01001c.02002.02002.04004.03003.04999.04999l-.02997-.03998ZM20.33002,7.51001v5.75c0,.57996.46997,1.04999,1.04999,1.04999h5.75l-6.79999-6.79999ZM26.38,31.17999l-.02002-.01001c.02002.02002.04004.03003.04999.04999l-.02997-.03998ZM20.33002,7.51001v5.75c0,.57996.46997,1.04999,1.04999,1.04999h5.75l-6.79999-6.79999ZM26.38,31.17999l-.02002-.01001c.02002.02002.04004.03003.04999.04999l-.02997-.03998ZM26.38,31.17999l-.02002-.01001c.02002.02002.04004.03003.04999.04999l-.02997-.03998ZM26.38,31.17999l-.02002-.01001c.02002.02002.04004.03003.04999.04999l-.02997-.03998ZM26.38,31.17999l-.02002-.01001c.02002.02002.04004.03003.04999.04999l-.02997-.03998ZM26.38,31.17999l-.02002-.01001c.02002.02002.04004.03003.04999.04999l-.02997-.03998ZM26.38,31.17999l-.02002-.01001c.02002.02002.04004.03003.04999.04999l-.02997-.03998ZM26.38,31.17999l-.02002-.01001c.02002.02002.04004.03003.04999.04999l-.02997-.03998ZM26.38,31.17999l-.02002-.01001c.02002.02002.04004.03003.04999.04999l-.02997-.03998ZM29.44,21.17999c-.71002-.35004-1.48999-.56-2.31-.60999-.10999,0-.22003-.01001-.34003-.01001-2.20996,0-4.13995,1.20996-5.16998,3-.21002.35999-.38.75-.51001,1.14996-.17999.57001-.27997,1.19-.27997,1.82001,0,.65002.09998,1.28003.28998,1.86005.28998.87994.78003,1.65997,1.41003,2.31,1.07996,1.10999,2.58997,1.78998,4.25995,1.78998,3.29004,0,5.97003-2.66998,5.97003-5.96002,0-2.33997-1.35999-4.37-3.32001-5.34998ZM27.19,31.21997c-.02002.02002-.03998.04004-.07001.04999.02002-.00995.03003-.02997.04999-.04999-.02997.03003-.06.04999-.08997.07001-.02002.01001-.04004.03003-.06.03003-.03003.01996-.07001.02997-.11005.03998-.02997.01001-.06995.01001-.10999.01001h-.01001c-.03998,0-.07996,0-.12-.01001-.02997,0-.04999-.01001-.07996-.02002-.03003-.01001-.06-.02997-.09003-.04999-.01001-.01001-.02002-.01001-.02002-.02002-.01996-.00995-.02997-.00995-.03998-.01996-.02002-.01001-.03998-.01001-.04999-.03003l-3.85999-3.85999c-.21002-.21002-.21002-.56,0-.77002l.03998-.03998c.21997-.22003.57001-.22003.77997,0l2.87,2.87v-7.16998c0-.32001.25-.57001.57001-.57001h.01001c.31,0,.57001.25.57001.57001v7.16998l2.85999-2.87c.22003-.22003.57001-.22003.78003,0l.03998.03998c.21002.21002.21002.56,0,.77002l-3.85999,3.85999ZM26.35999,31.16998c.02002.02002.04004.03003.04999.04999l-.02997-.03998-.02002-.01001ZM26.38,31.17999l-.02002-.01001c.02002.02002.04004.03003.04999.04999l-.02997-.03998ZM26.38,31.17999l-.02002-.01001c.02002.02002.04004.03003.04999.04999l-.02997-.03998ZM26.38,31.17999l-.02002-.01001c.02002.02002.04004.03003.04999.04999l-.02997-.03998ZM26.38,31.17999l-.02002-.01001c.02002.02002.04004.03003.04999.04999l-.02997-.03998ZM21.38,16.60999c-1.85999,0-3.35999-1.5-3.35999-3.34998v-5.75h-5.52002c-.58002,0-1.04999.46997-1.04999,1.04999v18.77997c0,.58002.46997,1.05005,1.04999,1.05005h6.22998c-.13995-.60004-.20996-1.22003-.20996-1.86005,0-.63.07001-1.22998.19995-1.82001h-5.08997c-.31,0-.57001-.25995-.57001-.57996,0-.16003.06-.30005.16998-.40002.10004-.10999.25-.16998.40002-.16998h5.44c.27997-.72003.64996-1.40002,1.12-2.01001h-6.56c-.31,0-.57001-.26001-.57001-.58002s.26001-.57996.57001-.57996h7.63c1.45996-1.33002,3.39996-2.13,5.52997-2.13h.34003v-1.65002h-5.75ZM20.27002,17.88c0,.26996-.22003.5-.5.5h-6.21002c-.27997,0-.5-.23004-.5-.5v-.15002c0-.27997.22003-.5.5-.5h6.21002c.27997,0,.5.22003.5.5v.15002ZM26.38,31.17999l-.02002-.01001c.02002.02002.04004.03003.04999.04999l-.02997-.03998ZM26.38,31.17999l-.02002-.01001c.02002.02002.04004.03003.04999.04999l-.02997-.03998ZM26.38,31.17999l-.02002-.01001c.02002.02002.04004.03003.04999.04999l-.02997-.03998ZM26.38,31.17999l-.02002-.01001c.02002.02002.04004.03003.04999.04999l-.02997-.03998ZM26.38,31.17999l-.02002-.01001c.02002.02002.04004.03003.04999.04999l-.02997-.03998ZM26.38,31.17999l-.02002-.01001c.02002.02002.04004.03003.04999.04999l-.02997-.03998ZM26.38,31.17999l-.02002-.01001c.02002.02002.04004.03003.04999.04999l-.02997-.03998ZM26.38,31.17999l-.02002-.01001c.02002.02002.04004.03003.04999.04999l-.02997-.03998ZM26.38,31.17999l-.02002-.01001c.02002.02002.04004.03003.04999.04999l-.02997-.03998ZM26.38,31.17999l-.02002-.01001c.02002.02002.04004.03003.04999.04999l-.02997-.03998ZM26.38,31.17999l-.02002-.01001c.02002.02002.04004.03003.04999.04999l-.02997-.03998ZM26.38,31.17999l-.02002-.01001c.02002.02002.04004.03003.04999.04999l-.02997-.03998ZM29.44,21.17999c-.71002-.35004-1.48999-.56-2.31-.60999-.10999,0-.22003-.01001-.34003-.01001-2.20996,0-4.13995,1.20996-5.16998,3-.21002.35999-.38.75-.51001,1.14996-.17999.57001-.27997,1.19-.27997,1.82001,0,.65002.09998,1.28003.28998,1.86005.28998.87994.78003,1.65997,1.41003,2.31,1.07996,1.10999,2.58997,1.78998,4.25995,1.78998,3.29004,0,5.97003-2.66998,5.97003-5.96002,0-2.33997-1.35999-4.37-3.32001-5.34998ZM27.19,31.21997c-.02002.02002-.03998.04004-.07001.04999.02002-.00995.03003-.02997.04999-.04999-.02997.03003-.06.04999-.08997.07001-.02002.01001-.04004.03003-.06.03003-.03003.01996-.07001.02997-.11005.03998-.02997.01001-.06995.01001-.10999.01001h-.01001c-.03998,0-.07996,0-.12-.01001-.02997,0-.04999-.01001-.07996-.02002-.03003-.01001-.06-.02997-.09003-.04999-.01001-.01001-.02002-.01001-.02002-.02002-.01996-.00995-.02997-.00995-.03998-.01996-.02002-.01001-.03998-.01001-.04999-.03003l-3.85999-3.85999c-.21002-.21002-.21002-.56,0-.77002l.03998-.03998c.21997-.22003.57001-.22003.77997,0l2.87,2.87v-7.16998c0-.32001.25-.57001.57001-.57001h.01001c.31,0,.57001.25.57001.57001v7.16998l2.85999-2.87c.22003-.22003.57001-.22003.78003,0l.03998.03998c.21002.21002.21002.56,0,.77002l-3.85999,3.85999ZM26.35999,31.16998c.02002.02002.04004.03003.04999.04999l-.02997-.03998-.02002-.01001ZM26.38,31.17999l-.02002-.01001c.02002.02002.04004.03003.04999.04999l-.02997-.03998ZM26.38,31.17999l-.02002-.01001c.02002.02002.04004.03003.04999.04999l-.02997-.03998ZM26.38,31.17999l-.02002-.01001c.02002.02002.04004.03003.04999.04999l-.02997-.03998ZM26.38,31.17999l-.02002-.01001c.02002.02002.04004.03003.04999.04999l-.02997-.03998ZM21.38,16.60999c-1.85999,0-3.35999-1.5-3.35999-3.34998v-5.75h-5.52002c-.58002,0-1.04999.46997-1.04999,1.04999v18.77997c0,.58002.46997,1.05005,1.04999,1.05005h6.22998c-.13995-.60004-.20996-1.22003-.20996-1.86005,0-.63.07001-1.22998.19995-1.82001h-5.08997c-.31,0-.57001-.25995-.57001-.57996,0-.16003.06-.30005.16998-.40002.10004-.10999.25-.16998.40002-.16998h5.44c.27997-.72003.64996-1.40002,1.12-2.01001h-6.56c-.31,0-.57001-.26001-.57001-.58002s.26001-.57996.57001-.57996h7.63c1.45996-1.33002,3.39996-2.13,5.52997-2.13h.34003v-1.65002h-5.75ZM20.27002,17.88c0,.26996-.22003.5-.5.5h-6.21002c-.27997,0-.5-.23004-.5-.5v-.15002c0-.27997.22003-.5.5-.5h6.21002c.27997,0,.5.22003.5.5v.15002ZM26.38,31.17999l-.02002-.01001c.02002.02002.04004.03003.04999.04999l-.02997-.03998ZM26.38,31.17999l-.02002-.01001c.02002.02002.04004.03003.04999.04999l-.02997-.03998ZM26.38,31.17999l-.02002-.01001c.02002.02002.04004.03003.04999.04999l-.02997-.03998ZM26.38,31.17999l-.02002-.01001c.02002.02002.04004.03003.04999.04999l-.02997-.03998ZM20.33002,7.51001v5.75c0,.57996.46997,1.04999,1.04999,1.04999h5.75l-6.79999-6.79999ZM20.33002,7.51001v5.75c0,.57996.46997,1.04999,1.04999,1.04999h5.75l-6.79999-6.79999ZM26.38,31.17999l-.02002-.01001c.02002.02002.04004.03003.04999.04999l-.02997-.03998ZM26.38,31.17999l-.02002-.01001c.02002.02002.04004.03003.04999.04999l-.02997-.03998ZM26.38,31.17999l-.02002-.01001c.02002.02002.04004.03003.04999.04999l-.02997-.03998ZM26.38,31.17999l-.02002-.01001c.02002.02002.04004.03003.04999.04999l-.02997-.03998ZM26.38,31.17999l-.02002-.01001c.02002.02002.04004.03003.04999.04999l-.02997-.03998ZM26.38,31.17999l-.02002-.01001c.02002.02002.04004.03003.04999.04999l-.02997-.03998ZM26.38,31.17999l-.02002-.01001c.02002.02002.04004.03003.04999.04999l-.02997-.03998ZM26.38,31.17999l-.02002-.01001c.02002.02002.04004.03003.04999.04999l-.02997-.03998ZM29.44,21.17999c-.71002-.35004-1.48999-.56-2.31-.60999-.10999,0-.22003-.01001-.34003-.01001-2.20996,0-4.13995,1.20996-5.16998,3-.21002.35999-.38.75-.51001,1.14996-.17999.57001-.27997,1.19-.27997,1.82001,0,.65002.09998,1.28003.28998,1.86005.28998.87994.78003,1.65997,1.41003,2.31,1.07996,1.10999,2.58997,1.78998,4.25995,1.78998,3.29004,0,5.97003-2.66998,5.97003-5.96002,0-2.33997-1.35999-4.37-3.32001-5.34998ZM27.19,31.21997c-.02002.02002-.03998.04004-.07001.04999.02002-.00995.03003-.02997.04999-.04999-.02997.03003-.06.04999-.08997.07001-.02002.01001-.04004.03003-.06.03003-.03003.01996-.07001.02997-.11005.03998-.02997.01001-.06995.01001-.10999.01001h-.01001c-.03998,0-.07996,0-.12-.01001-.02997,0-.04999-.01001-.07996-.02002-.03003-.01001-.06-.02997-.09003-.04999-.01001-.01001-.02002-.01001-.02002-.02002-.01996-.00995-.02997-.00995-.03998-.01996-.02002-.01001-.03998-.01001-.04999-.03003l-3.85999-3.85999c-.21002-.21002-.21002-.56,0-.77002l.03998-.03998c.21997-.22003.57001-.22003.77997,0l2.87,2.87v-7.16998c0-.32001.25-.57001.57001-.57001h.01001c.31,0,.57001.25.57001.57001v7.16998l2.85999-2.87c.22003-.22003.57001-.22003.78003,0l.03998.03998c.21002.21002.21002.56,0,.77002l-3.85999,3.85999ZM26.35999,31.16998c.02002.02002.04004.03003.04999.04999l-.02997-.03998-.02002-.01001ZM26.38,31.17999l-.02002-.01001c.02002.02002.04004.03003.04999.04999l-.02997-.03998ZM26.38,31.17999l-.02002-.01001c.02002.02002.04004.03003.04999.04999l-.02997-.03998ZM26.38,31.17999l-.02002-.01001c.02002.02002.04004.03003.04999.04999l-.02997-.03998ZM26.38,31.17999l-.02002-.01001c.02002.02002.04004.03003.04999.04999l-.02997-.03998ZM21.38,16.60999c-1.85999,0-3.35999-1.5-3.35999-3.34998v-5.75h-5.52002c-.58002,0-1.04999.46997-1.04999,1.04999v18.77997c0,.58002.46997,1.05005,1.04999,1.05005h6.22998c-.13995-.60004-.20996-1.22003-.20996-1.86005,0-.63.07001-1.22998.19995-1.82001h-5.08997c-.31,0-.57001-.25995-.57001-.57996,0-.16003.06-.30005.16998-.40002.10004-.10999.25-.16998.40002-.16998h5.44c.27997-.72003.64996-1.40002,1.12-2.01001h-6.56c-.31,0-.57001-.26001-.57001-.58002s.26001-.57996.57001-.57996h7.63c1.45996-1.33002,3.39996-2.13,5.52997-2.13h.34003v-1.65002h-5.75ZM20.27002,17.88c0,.26996-.22003.5-.5.5h-6.21002c-.27997,0-.5-.23004-.5-.5v-.15002c0-.27997.22003-.5.5-.5h6.21002c.27997,0,.5.22003.5.5v.15002ZM26.38,31.17999l-.02002-.01001c.02002.02002.04004.03003.04999.04999l-.02997-.03998ZM26.38,31.17999l-.02002-.01001c.02002.02002.04004.03003.04999.04999l-.02997-.03998ZM26.38,31.17999l-.02002-.01001c.02002.02002.04004.03003.04999.04999l-.02997-.03998ZM26.38,31.17999l-.02002-.01001c.02002.02002.04004.03003.04999.04999l-.02997-.03998ZM26.38,31.17999l-.02002-.01001c.02002.02002.04004.03003.04999.04999l-.02997-.03998ZM26.38,31.17999l-.02002-.01001c.02002.02002.04004.03003.04999.04999l-.02997-.03998ZM26.38,31.17999l-.02002-.01001c.02002.02002.04004.03003.04999.04999l-.02997-.03998ZM26.38,31.17999l-.02002-.01001c.02002.02002.04004.03003.04999.04999l-.02997-.03998ZM26.38,31.17999l-.02002-.01001c.02002.02002.04004.03003.04999.04999l-.02997-.03998ZM26.38,31.17999l-.02002-.01001c.02002.02002.04004.03003.04999.04999l-.02997-.03998ZM26.38,31.17999l-.02002-.01001c.02002.02002.04004.03003.04999.04999l-.02997-.03998ZM26.38,31.17999l-.02002-.01001c.02002.02002.04004.03003.04999.04999l-.02997-.03998ZM29.44,21.17999c-.71002-.35004-1.48999-.56-2.31-.60999-.10999,0-.22003-.01001-.34003-.01001-2.20996,0-4.13995,1.20996-5.16998,3-.21002.35999-.38.75-.51001,1.14996-.17999.57001-.27997,1.19-.27997,1.82001,0,.65002.09998,1.28003.28998,1.86005.28998.87994.78003,1.65997,1.41003,2.31,1.07996,1.10999,2.58997,1.78998,4.25995,1.78998,3.29004,0,5.97003-2.66998,5.97003-5.96002,0-2.33997-1.35999-4.37-3.32001-5.34998ZM27.19,31.21997c-.02002.02002-.03998.04004-.07001.04999.02002-.00995.03003-.02997.04999-.04999-.02997.03003-.06.04999-.08997.07001-.02002.01001-.04004.03003-.06.03003-.03003.01996-.07001.02997-.11005.03998-.02997.01001-.06995.01001-.10999.01001h-.01001c-.03998,0-.07996,0-.12-.01001-.02997,0-.04999-.01001-.07996-.02002-.03003-.01001-.06-.02997-.09003-.04999-.01001-.01001-.02002-.01001-.02002-.02002-.01996-.00995-.02997-.00995-.03998-.01996-.02002-.01001-.03998-.01001-.04999-.03003l-3.85999-3.85999c-.21002-.21002-.21002-.56,0-.77002l.03998-.03998c.21997-.22003.57001-.22003.77997,0l2.87,2.87v-7.16998c0-.32001.25-.57001.57001-.57001h.01001c.31,0,.57001.25.57001.57001v7.16998l2.85999-2.87c.22003-.22003.57001-.22003.78003,0l.03998.03998c.21002.21002.21002.56,0,.77002l-3.85999,3.85999ZM26.35999,31.16998c.02002.02002.04004.03003.04999.04999l-.02997-.03998-.02002-.01001ZM26.38,31.17999l-.02002-.01001c.02002.02002.04004.03003.04999.04999l-.02997-.03998ZM26.38,31.17999l-.02002-.01001c.02002.02002.04004.03003.04999.04999l-.02997-.03998ZM26.38,31.17999l-.02002-.01001c.02002.02002.04004.03003.04999.04999l-.02997-.03998ZM26.38,31.17999l-.02002-.01001c.02002.02002.04004.03003.04999.04999l-.02997-.03998ZM21.38,16.60999c-1.85999,0-3.35999-1.5-3.35999-3.34998v-5.75h-5.52002c-.58002,0-1.04999.46997-1.04999,1.04999v18.77997c0,.58002.46997,1.05005,1.04999,1.05005h6.22998c-.13995-.60004-.20996-1.22003-.20996-1.86005,0-.63.07001-1.22998.19995-1.82001h-5.08997c-.31,0-.57001-.25995-.57001-.57996,0-.16003.06-.30005.16998-.40002.10004-.10999.25-.16998.40002-.16998h5.44c.27997-.72003.64996-1.40002,1.12-2.01001h-6.56c-.31,0-.57001-.26001-.57001-.58002s.26001-.57996.57001-.57996h7.63c1.45996-1.33002,3.39996-2.13,5.52997-2.13h.34003v-1.65002h-5.75ZM20.27002,17.88c0,.26996-.22003.5-.5.5h-6.21002c-.27997,0-.5-.23004-.5-.5v-.15002c0-.27997.22003-.5.5-.5h6.21002c.27997,0,.5.22003.5.5v.15002ZM26.38,31.17999l-.02002-.01001c.02002.02002.04004.03003.04999.04999l-.02997-.03998ZM26.38,31.17999l-.02002-.01001c.02002.02002.04004.03003.04999.04999l-.02997-.03998ZM26.38,31.17999l-.02002-.01001c.02002.02002.04004.03003.04999.04999l-.02997-.03998ZM26.38,31.17999l-.02002-.01001c.02002.02002.04004.03003.04999.04999l-.02997-.03998ZM20.33002,7.51001v5.75c0,.57996.46997,1.04999,1.04999,1.04999h5.75l-6.79999-6.79999ZM20.33002,7.51001v5.75c0,.57996.46997,1.04999,1.04999,1.04999h5.75l-6.79999-6.79999ZM21.38,16.60999c-1.85999,0-3.35999-1.5-3.35999-3.34998v-5.75h-5.52002c-.58002,0-1.04999.46997-1.04999,1.04999v18.77997c0,.58002.46997,1.05005,1.04999,1.05005h6.22998c-.13995-.60004-.20996-1.22003-.20996-1.86005,0-.63.07001-1.22998.19995-1.82001h-5.08997c-.31,0-.57001-.25995-.57001-.57996,0-.16003.06-.30005.16998-.40002.10004-.10999.25-.16998.40002-.16998h5.44c.27997-.72003.64996-1.40002,1.12-2.01001h-6.56c-.31,0-.57001-.26001-.57001-.58002s.26001-.57996.57001-.57996h7.63c1.45996-1.33002,3.39996-2.13,5.52997-2.13h.34003v-1.65002h-5.75ZM20.27002,17.88c0,.26996-.22003.5-.5.5h-6.21002c-.27997,0-.5-.23004-.5-.5v-.15002c0-.27997.22003-.5.5-.5h6.21002c.27997,0,.5.22003.5.5v.15002ZM20.33002,7.51001v5.75c0,.57996.46997,1.04999,1.04999,1.04999h5.75l-6.79999-6.79999ZM20.33002,7.51001v5.75c0,.57996.46997,1.04999,1.04999,1.04999h5.75l-6.79999-6.79999ZM21.38,16.60999c-1.85999,0-3.35999-1.5-3.35999-3.34998v-5.75h-5.52002c-.58002,0-1.04999.46997-1.04999,1.04999v18.77997c0,.58002.46997,1.05005,1.04999,1.05005h6.22998c-.13995-.60004-.20996-1.22003-.20996-1.86005,0-.63.07001-1.22998.19995-1.82001h-5.08997c-.31,0-.57001-.25995-.57001-.57996,0-.16003.06-.30005.16998-.40002.10004-.10999.25-.16998.40002-.16998h5.44c.27997-.72003.64996-1.40002,1.12-2.01001h-6.56c-.31,0-.57001-.26001-.57001-.58002s.26001-.57996.57001-.57996h7.63c1.45996-1.33002,3.39996-2.13,5.52997-2.13h.34003v-1.65002h-5.75ZM20.27002,17.88c0,.26996-.22003.5-.5.5h-6.21002c-.27997,0-.5-.23004-.5-.5v-.15002c0-.27997.22003-.5.5-.5h6.21002c.27997,0,.5.22003.5.5v.15002ZM20.33002,7.51001v5.75c0,.57996.46997,1.04999,1.04999,1.04999h5.75l-6.79999-6.79999ZM20.33002,7.51001v5.75c0,.57996.46997,1.04999,1.04999,1.04999h5.75l-6.79999-6.79999ZM20.33002,7.51001v5.75c0,.57996.46997,1.04999,1.04999,1.04999h5.75l-6.79999-6.79999ZM20.33002,7.51001v5.75c0,.57996.46997,1.04999,1.04999,1.04999h5.75l-6.79999-6.79999Z"/><path d="M26.40997,31.21997c-.00995-.01996-.02997-.02997-.04999-.04999l.02002.01001.02997.03998Z"/><path d="M27.16998,31.21997c-.01996.02002-.02997.04004-.04999.04999-.02002.01001-.02997.02002-.03998.02002.02997-.02002.06-.03998.08997-.07001Z"/><path d="M26.66998,31.35999c.04004.01001.08002.01001.12.01001-.03998,0-.07996.01001-.10999,0q-.01001,0-.01001-.01001Z"/><path d="M27.16998,31.21997c-.01996.02002-.02997.04004-.04999.04999-.03998.04004-.08002.06-.13.07001-.02997.02002-.06.03003-.08997.03003-.03003.01001-.07001,0-.10004,0,.04004,0,.08002,0,.10999-.01001.04004-.01001.08002-.02002.11005-.03998.01996,0,.03998-.02002.06-.03003.02997-.02002.06-.03998.08997-.07001Z"/><path d="M26.40997,31.21997c-.00995-.01996-.02997-.02997-.04999-.04999l.02002.01001.02997.03998Z"/><path d="M26.66998,31.35999c.04004.01001.08002.01001.12.01001-.03998,0-.07996.01001-.10999,0-.02997,0-.06-.01001-.08997-.03003.02997.01001.04999.02002.07996.02002Z"/><path d="M26.79999,31.37c.04004,0,.08002,0,.10999-.01001q0,.01001-.00995.01001c-.03003.01001-.07001,0-.10004,0Z"/><path d="M27.02002,31.32001c-.01001.00995-.02002.01996-.03003.01996-.02997.01001-.04999.02002-.08002.02002.04004-.01001.08002-.02002.11005-.03998Z"/></svg>