<?xml version="1.0" encoding="UTF-8"?><svg id="Layer_2" xmlns="http://www.w3.org/2000/svg" viewBox="0 0 287.13911 287.23813"><defs><style>.cls-1{fill:#fff;}</style></defs><path class="cls-1" d="M152.59083,0l14.69281,1.8453c118.4797,20.44132,162.29443,169.06352,70.78247,249.94147C152.68076,327.25003,15.97599,275.07263,1.31174,162.83368c-.44048-3.37138-.34118-7.06274-1.20132-10.29472.25534-5.93311-.34607-12.02992,0-17.94576C4.2768,63.37126,63.45883,4.16771,134.65196,0h17.93887ZM227.70986,85.80316H59.53293l76.48994,76.86085c1.42044.81596,10.77336.77837,12.95839.56452.9582-.09378,1.83661.04108,2.52146-.8424l76.20713-76.58297ZM52.80586,198.52497l52.65489-52.51224-52.65489-52.9191v105.43134ZM234.43693,198.52497v-105.43134l-52.65489,52.9191,52.65489,52.51224ZM223.22514,201.32899l-48.49101-48.24902-19.05655,18.52985c-1.30327,1.02453-2.90089,1.03201-4.46472,1.14161-3.35767.23534-16.60138.43439-18.9559-.71201l-18.6017-18.41205-1.59461-.46793-48.04299,48.16953h159.20749Z"/></svg>