<?xml version="1.0" encoding="UTF-8"?><svg id="Layer_2" xmlns="http://www.w3.org/2000/svg" viewBox="0 0 189.27637 81.5957"><defs><style>.cls-1{fill:#fff;}</style></defs><path class="cls-1" d="M25.01074,11.86768h.52539c.25.0498.375.1748.375.375v.17529c0,.5835-2.27637,6.40234-6.82812,17.45703l-3.77637,9.00342c6.41895-3.00098,13.12988-6.95264,20.13281-11.85498,3.43457-2.60059,7.03613-5.66846,10.80469-9.20361h1.10059c.25.03369.375.15039.375.3501v.17529c-4.53516,4.45166-9.27832,8.35352-14.23047,11.70459-5.00195,3.30127-11.30469,6.84473-18.9082,10.62939v.75049c3.68457,2.95117,8.9043,7.32764,15.65625,13.13037,2.51758,1.91699,11.45508,8.34473,26.81152,19.28271v.1499l.375-.1499c.93359,0,1.70898.8335,2.32617,2.50098,0,.2334-.10938.3501-.3252.3501h-.5752c-.55078,0-2.16016-1.14209-4.82715-3.42627-14.38965-10.1709-23.39355-16.64893-27.01074-19.43311-4.73633-4.11816-9.12891-7.84473-13.18066-11.17969h-.15039c-.7168,2.05127-3.66797,9.25391-8.85352,21.60889-1.85059,4.45215-2.98438,6.67773-3.40137,6.67773h-.52539l-.90039-.1748v-2.17627c0-.18359.47559-.4248,1.42578-.7251,3.11816-7.25293,6.71973-15.95654,10.80469-26.11035h-.2002c-1.65039.73389-3.02637,1.1001-4.12695,1.1001-.61621,0-1.04199-.24121-1.27539-.7251v-.375c.2002-1.80078,1.05078-2.70117,2.55078-2.70117h.52539c1.40039.2334,2.36816.6001,2.90137,1.1001.36621,0,.77539-.8418,1.22559-2.52588.7334-1.2168,4.10156-9.37891,10.10449-24.48486l-.35059-.2002c.2334-.7168.70801-1.0752,1.42578-1.0752ZM9.17871,39.9541c-.5.78369-.75,1.38379-.75,1.80078h.2002l2.50098-.90039v-.17529c-1.05078-.4834-1.70117-.7251-1.95117-.7251Z"/><path class="cls-1" d="M28.78711,36.62744h.5498c.2334.05029.35059.17529.35059.37549v.1748c-1.43457,3.30127-2.15137,5.46924-2.15137,6.50293h.15039c1.2998-.70068,2.99219-1.79248,5.07715-3.27637h.1748c.2002.1333.44141.19971.72559.19971v.52539c-2.73535,2.40088-4.77734,3.60156-6.12793,3.60156h-.5498c-.73438,0-1.10059-.3501-1.10059-1.05029v-.2002c0-.85059.125-1.50879.375-1.97607v-.19971h-.1748c-1.05078,1.4502-2.12598,2.17578-3.22656,2.17578h-.375c-.63379,0-1.00098-.18359-1.10059-.55029v-.52539c0-1.40039.90039-2.66748,2.70117-3.80127.65039-.3501,1.25-.52539,1.80078-.52539.5332.13379.95801.2002,1.27539.2002.90039-1.10059,1.44238-1.65088,1.62598-1.65088ZM23.03418,42.20459h.15039c1.80078-1.5166,2.70117-2.41699,2.70117-2.70068l-.3252-.17529h-.375c-.93457.50049-1.65137,1.40039-2.15137,2.70117v.1748Z"/><path class="cls-1" d="M37.76562,29.5249h.55078c.2334.0332.34961.1499.34961.3501,0,.5166-.54199,2.01758-1.625,4.50146h42.89258l.90039.17529v.5752c0,.3501-1.09277.52539-3.27637.52539h-.7002l-.52539-.37549h-39.81641c0,.21729-4.62695,11.07959-13.88086,32.58838.25,0,.375.19141.375.5752-.75,1.66699-1.47559,2.50098-2.17578,2.50098-.59961-.1001-.90039-.28369-.90039-.55029l14.98145-35.11426h-11.55469c-.2334,0-.35059-.11621-.35059-.3501.13379-.36621.50098-.55029,1.10059-.55029h10.95508c.19922,0,.9834-1.55029,2.35059-4.65186l.34961-.19971Z"/><path class="cls-1" d="M37.41504,37.45312h.7002c.18359,0,.3584.1748.52539.5249v.17529c0,.3999-.59961,2.02588-1.80078,4.87695v.90039c1.58398-.85059,3.33496-1.98438,5.25195-3.40137h.15039c.2334.1001.4834.1499.75.1499v.55029c-2.15039,2.00098-4.25098,3.31787-6.30176,3.95166h-.55078c-.7334,0-1.10059-.3501-1.10059-1.05078,0-.8501.66699-2.77588,2.00098-5.77734-.13379-.25-.2002-.4248-.2002-.5249l.5752-.375ZM41.7168,29.14941h1.10059v1.10059c-1.15039.3501-1.87598.52539-2.17578.52539h-.52539c-.25,0-.375-.1167-.375-.35059,0-.16602.6582-.59131,1.97559-1.27539Z"/><path class="cls-1" d="M48.64551,36.62744h.5498c.2334.05029.35059.17529.35059.37549v.1748c-1.43457,3.30127-2.15137,5.46924-2.15137,6.50293h.15039c1.2998-.70068,2.99219-1.79248,5.07715-3.27637h.1748c.2002.1333.44141.19971.72559.19971v.52539c-2.73535,2.40088-4.77734,3.60156-6.12793,3.60156h-.5498c-.73438,0-1.10059-.3501-1.10059-1.05029v-.2002c0-.85059.125-1.50879.375-1.97607v-.19971h-.1748c-1.05078,1.4502-2.12598,2.17578-3.22656,2.17578h-.375c-.63379,0-1.00098-.18359-1.10059-.55029v-.52539c0-1.40039.90039-2.66748,2.70117-3.80127.65039-.3501,1.25-.52539,1.80078-.52539.5332.13379.95801.2002,1.27539.2002.90039-1.10059,1.44238-1.65088,1.62598-1.65088ZM42.89258,42.20459h.15039c1.80078-1.5166,2.70117-2.41699,2.70117-2.70068l-.3252-.17529h-.375c-.93457.50049-1.65137,1.40039-2.15137,2.70117v.1748Z"/><path class="cls-1" d="M106.14355,2.63867h2.52539c1.80078,0,2.80957.85059,3.02637,2.55127v.90039c0,1.90039-1.85059,5.01025-5.55176,9.32861h-1.07617c-.18359,0-.375-.17529-.5752-.52539,1.00098-1.7168,2.15137-3.10107,3.45117-4.15137,1.30078-2.48438,1.95117-4.10156,1.95117-4.85205v-1.07568c-.4502-.8501-1.22559-1.27539-2.32617-1.27539-3.56836,0-7.70312,1.15039-12.4043,3.45166-3.43555,1.70068-7.40332,4.57666-11.90527,8.62842-5.20215,5.26904-9.46191,10.49609-12.78027,15.68115-2.30078,3.85156-3.97656,7.38672-5.02734,10.60449-.4834,2.25098-.7832,3.99316-.90039,5.22705,0,4.50195,2.03418,7.43604,6.10254,8.80371h1.27637c5.70215,0,14.64648-4.80225,26.83496-14.40576.61719-.7168,1.21777-1.07568,1.80078-1.07568l.90039.17529v.7251c-.43359.2168-2.83398,2.07568-7.20215,5.57715-9.1875,6.08594-15.19043,9.21191-18.00781,9.37891-.2998.3335-1.86719.5752-4.70215.7251-4.20117,0-7.02734-2.40088-8.47852-7.20264-.09961-.63379-.14941-1.23389-.14941-1.80078v-1.42578c0-7.48584,5.81836-17.58203,17.45703-30.28711,5.41797-5.11865,9.80371-8.41992,13.15527-9.90381,4.85156-2.51758,9.05371-3.77686,12.60547-3.77686Z"/><path class="cls-1" d="M103.14258,38.75342c.63379,0,1.05078.6001,1.25,1.80078,0,.0835-.1748.92529-.52441,2.52588,1-.3501,2.13379-1.12549,3.40137-2.32568.23242-.1333.47461-.2002.72461-.2002.25.13379.43359.2002.55078.2002v.3252c-1.66797,1.93408-3.46875,2.90088-5.40234,2.90088,0,.4502-.48438.98389-1.45117,1.60059h-1.625c-.4668-.19971-.7002-.6084-.7002-1.22559v-.19971c0-2.10107.90039-3.83496,2.70117-5.20215l1.0752-.2002ZM100.9668,42.35498l-.17578,1.80078v.5249h.17578c.4502-.21631.75-.5752.90039-1.0752-.06738,0-.36719-.4165-.90039-1.25049ZM102.5918,41.2793v.7002h.17578v-.7002h-.17578ZM102.76758,40.37891v.70068h.2002v-.70068h-.2002Z"/><path class="cls-1" d="M109.06934,35.95215h.1748c1.08398,0,1.62598.60059,1.62598,1.80078-.35059.80029-.52539,1.35059-.52539,1.65088.7002.4668,1.12598.7002,1.27539.7002v.7251c0,.25049-.19141.85059-.5752,1.80078h.2002c2.40137-1.68359,3.77637-2.52588,4.12695-2.52588h.1748c.25.03369.375.1499.375.3501v.375c-2.01758,1.91797-3.64355,2.87646-4.87695,2.87646h-.3252c-.85059,0-1.27539-.3584-1.27539-1.07568.35059-1.15039.52539-1.81689.52539-2.00049l-.35059-.17529c-2.2666,3.96826-3.89258,7.02783-4.87695,9.17871h-1.0752c-.2334,0-.34961-.1084-.34961-.3252,1.09961-2.65088,2.77539-5.95215,5.02637-9.90381-.34961,0-.65039-.55029-.90039-1.65088v-.7251c.43359-.7168.97559-1.07568,1.62598-1.07568ZM108.91895,37.60303l.3252.1499v-.5249c-.2168.0166-.3252.1416-.3252.375Z"/><path class="cls-1" d="M117.67285,38.75342c.63379,0,1.05078.6001,1.25,1.80078,0,.0835-.1748.92529-.52441,2.52588,1-.3501,2.13379-1.12549,3.40137-2.32568.23242-.1333.47461-.2002.72461-.2002.25.13379.43359.2002.55078.2002v.3252c-1.66797,1.93408-3.46875,2.90088-5.40234,2.90088,0,.4502-.48438.98389-1.45117,1.60059h-1.625c-.4668-.19971-.7002-.6084-.7002-1.22559v-.19971c0-2.10107.90039-3.83496,2.70117-5.20215l1.0752-.2002ZM115.49707,42.35498l-.17578,1.80078v.5249h.17578c.4502-.21631.75-.5752.90039-1.0752-.06738,0-.36719-.4165-.90039-1.25049ZM117.12207,41.2793v.7002h.17578v-.7002h-.17578ZM117.29785,40.37891v.70068h.2002v-.70068h-.2002Z"/><path class="cls-1" d="M127.17676,37.37793h.72559c.16602,0,.3418.1748.52539.52539v.7002c0,.55029-.71777,2.47607-2.15137,5.77734.30078,0,1.80078-1.32568,4.50195-3.97656h.90039c.2334.0332.35059.15869.35059.375v.2002c-2.60156,3.10107-4.51855,4.65186-5.75293,4.65186h-.7002l-.90039-.15039v-.90039c0-.5498.70898-2.41699,2.12598-5.60205h-.1748c-2.95117,3.73535-4.56836,5.60205-4.85254,5.60205h-1.27539c-.21582,0-.3252-.125-.3252-.375v-.2002c0-1.3667.77539-2.86719,2.32617-4.50146h.52539c.25.0332.375.15869.375.375v.3501l-.2002.375h.2002c1.61719-2.15088,2.87598-3.22607,3.77637-3.22607Z"/><path class="cls-1" d="M137.23145,36.62744h.5498c.2334.05029.35059.17529.35059.37549v.1748c-1.43457,3.30127-2.15137,5.46924-2.15137,6.50293h.15039c1.2998-.70068,2.99219-1.79248,5.07715-3.27637h.1748c.2002.1333.44141.19971.72559.19971v.52539c-2.73535,2.40088-4.77734,3.60156-6.12793,3.60156h-.5498c-.73438,0-1.10059-.3501-1.10059-1.05029v-.2002c0-.85059.125-1.50879.375-1.97607v-.19971h-.1748c-1.05078,1.4502-2.12598,2.17578-3.22656,2.17578h-.375c-.63379,0-1.00098-.18359-1.10059-.55029v-.52539c0-1.40039.90039-2.66748,2.70117-3.80127.65039-.3501,1.25-.52539,1.80078-.52539.5332.13379.95801.2002,1.27539.2002.90039-1.10059,1.44238-1.65088,1.62598-1.65088ZM131.47852,42.20459h.15039c1.80078-1.5166,2.70117-2.41699,2.70117-2.70068l-.3252-.17529h-.375c-.93457.50049-1.65137,1.40039-2.15137,2.70117v.1748Z"/><path class="cls-1" d="M146.20898,29.5249h.55078c.2334.0332.34961.1499.34961.3501,0,.5166-.54199,2.01758-1.625,4.50146h42.89258l.90039.17529v.5752c0,.3501-1.09277.52539-3.27637.52539h-.7002l-.52539-.37549h-39.81641c0,.21729-4.62695,11.07959-13.88086,32.58838.25,0,.375.19141.375.5752-.75,1.66699-1.47559,2.50098-2.17578,2.50098-.59961-.1001-.90039-.28369-.90039-.55029l14.98145-35.11426h-11.55469c-.2334,0-.35059-.11621-.35059-.3501.13379-.36621.50098-.55029,1.10059-.55029h10.95508c.19922,0,.9834-1.55029,2.35059-4.65186l.34961-.19971Z"/><path class="cls-1" d="M147.36035,38.75342c.63379,0,1.05078.6001,1.25,1.80078,0,.0835-.1748.92529-.52441,2.52588,1-.3501,2.13379-1.12549,3.40137-2.32568.23242-.1333.47461-.2002.72461-.2002.25.13379.43359.2002.55078.2002v.3252c-1.66797,1.93408-3.46875,2.90088-5.40234,2.90088,0,.4502-.48438.98389-1.45117,1.60059h-1.625c-.4668-.19971-.7002-.6084-.7002-1.22559v-.19971c0-2.10107.90039-3.83496,2.70117-5.20215l1.0752-.2002ZM145.18457,42.35498l-.17578,1.80078v.5249h.17578c.4502-.21631.75-.5752.90039-1.0752-.06738,0-.36719-.4165-.90039-1.25049ZM146.80957,41.2793v.7002h.17578v-.7002h-.17578ZM146.98535,40.37891v.70068h.2002v-.70068h-.2002Z"/></svg>